<svg xmlns="http://www.w3.org/2000/svg" width="840" height="520" viewBox="0 0 840 520" fill="none"><mask id="path-1-inside-1" fill="white"><path d="M840 64.5666V69.7337L831.39 77.5472L824.838 83.4703L817.32 83.2183L811.65 86.3269L813.204 92.5441V96.955L799.974 103.424L797.664 112.498V129.595L808.038 142.03L806.736 147.239L795.858 151.65V158.623L788.046 162.866L782.88 165.638H774.354L760.914 179.375L762.972 181.433L765.324 196.977L761.628 205.504L756.546 217.182L753.186 216.678L752.43 210.965L744.072 210.503L749.826 220.543L756.546 228.567L753.69 240.497L749.028 248.143H744.45L745.122 239.489L741.174 233.272L735.378 230.247L734.79 222.434L736.596 212.604L733.782 210.797L727.314 217.519L729.666 222.434L730.17 233.314L734.328 235.372L738.738 243.648L739.704 248.185L740.292 250.915L738.486 256.88L745.206 257.384L750.414 259.695L749.112 266.206L753.522 269.063L753.27 271.667L748.86 275.826L756.63 281.791V289.563L754.446 290.865L750.666 293.175L754.278 299.645L751.674 306.114L731.22 309.475V317.498L725.298 328.882L715.722 330.983L714.252 333.503L708.75 342.913L709.002 348.122L696.57 361.313H691.362L687.204 370.386L680.484 373.999L680.358 376.184L678.678 403.027L683.592 409.496L685.692 418.528L685.944 418.78L691.11 423.191V430.206L703.542 440.834L704.844 452.765L709.506 461.46L718.578 478.39V504.057H699.426C699.426 504.057 699.468 503.847 699.426 503.763C698.712 501.872 694.008 497.755 694.008 497.755L686.784 498.301V489.48H681.66L679.602 486.119V481.204L675.444 480.952L667.17 471.374L668.22 465.955L664.062 466.459L661.962 462.594L662.214 461.46L664.02 453.521L662.718 440.078L658.308 438.524L645.12 424.031L633.99 423.233L620.802 431.004L615.594 432.307L607.572 420.418L586.194 418.822L583.002 418.612L582.666 418.822L575.988 423.779L572.376 419.62L567.798 423.695L548.562 423.779V432.055L544.95 436.969L554.778 447.093L549.36 450.454L536.13 444.237L529.116 452.555L517.23 452.513L513.87 440.876L500.136 437.011V442.977L497.322 444.783L478.422 439.868H470.4L444.78 451.252V456.461L437.262 461.544L434.406 463.477L423.024 465.829L418.866 472.046L413.196 472.55L410.088 479.818L406.224 480.868L406.476 495.907C405.762 498.385 405.846 501.326 406.308 504.225C407.274 510.694 410.13 516.869 410.13 516.869L406.77 519.474L392.826 515.315C383.838 513.55 378.294 508.762 374.934 504.225C371.322 499.352 370.272 494.857 370.272 494.857C369.264 487.841 367.668 485.279 367.668 485.279C359.142 480.364 352.632 462.216 352.632 462.216C352.548 462.006 352.464 461.796 352.38 461.586C346.206 446.715 337.386 439.448 337.386 439.448H328.86L326.256 436.591L311.766 436.087V446.211L302.694 453.185C289.254 449.824 279.72 433.105 279.72 433.105L280.182 423.947L276.108 418.99L250.698 388.198L223.23 386.14L220.92 396.768L171.99 390.802L148.092 376.394L115.794 356.902V347.828H76.44L75.18 333.755L74.634 327.622L67.914 325.018V317.246H61.698L60.732 311.659L55.482 310.273L45.612 298.09L32.676 296.536L28.266 292.923L28.854 291.117L30.828 285.404L29.274 282.589L27.972 279.229L29.778 274.566L27.594 269.147L26.418 266.248L21.504 254.15L19.152 252.049V248.941L22.764 245.076V241.211L16.8 234.196L17.304 218.905L11.886 212.94L12.39 204.664L6.342 195.506L6.972 183.24L8.778 175.426L0 165.05L4.956 158.329L13.986 143.584L12.978 136.317L15.582 131.654L16.632 113.044L26.376 95.3587L33.18 83.0082V76.2869L35.952 72.2542L38.346 68.8095L43.554 52.2582V47.5953L48.216 42.1762L45.36 36.9672L45.696 28.5236L50.022 24.3228L45.906 23.7346L46.158 17.5594L43.554 16.2572V12.0144L46.158 5.04099H49.77L52.122 11.2582L60.648 14.6189L69.72 16.1732V22.3904L65.856 27.8094L60.648 29.6158L61.698 37.8914H69.216L74.424 31.6742V24.4068L76.482 21.8023L72.324 16.3832L75.306 11.1742L76.482 8.35963L74.13 6.00718L76.482 0L108.57 9.91394L148.218 20.542L161.784 23.5246L163.506 23.9027L184.044 27.2213L231.084 34.7828L232.554 34.9508L249.06 36.9252L332.892 47.0912L340.62 47.4273L346.29 47.6793L405.804 50.2838L415.002 49.6537L439.992 47.9734V41.2521L447.006 45.3689V53.8966L461.496 59.1056L465.654 54.4427L476.49 58.0554L479.598 63.2644L490.224 66.8771L498.498 64.2726L516.6 67.1291L521.01 60.1558L526.428 59.6517L533.694 51.8801L533.19 49.0236L535.248 45.1588L554.904 45.915L558.516 48.2674L566.034 62.5082L573.552 62.7603L575.106 58.6015L581.574 62.4662L582.078 69.2296L586.236 72.0441L586.404 77.5052L586.446 79.5636L590.856 79.8156V85.2347L595.77 88.8474L597.87 93.5103L615.468 92.5021L641.97 91.956L652.512 102.332L660.786 114.766L657.678 120.101H646.17L640.374 113.464L638.568 114.514L639.282 120.101L639.828 124.344L634.41 134.174L638.022 149.213L629.748 155.934L629.37 162.74L628.992 169.125L620.466 171.94V176.351L630.042 176.855L642.348 162.698L643.776 161.06L656.46 161.816L667.59 153.036L675.36 153.288L677.418 149.129L675.612 145.516L667.338 146.567L666.036 140.602L674.31 132.578L688.296 125.058L699.174 125.563L697.62 120.648L699.048 120.059L714.966 113.422L718.872 105.399L729.75 95.8207L771.162 86.2009L773.766 79.2275L780.15 77.4212H780.192L781.746 74.3125L781.998 69.3976L785.652 68.0953L785.4 62.6763L782.292 56.207L786.576 34.8668H815.094L821.898 56.207L828.114 56.459L828.828 63.1384L840 64.5666Z"></path></mask><path d="M840 64.5666V69.7337L831.39 77.5472L824.838 83.4703L817.32 83.2183L811.65 86.3269L813.204 92.5441V96.955L799.974 103.424L797.664 112.498V129.595L808.038 142.03L806.736 147.239L795.858 151.65V158.623L788.046 162.866L782.88 165.638H774.354L760.914 179.375L762.972 181.433L765.324 196.977L761.628 205.504L756.546 217.182L753.186 216.678L752.43 210.965L744.072 210.503L749.826 220.543L756.546 228.567L753.69 240.497L749.028 248.143H744.45L745.122 239.489L741.174 233.272L735.378 230.247L734.79 222.434L736.596 212.604L733.782 210.797L727.314 217.519L729.666 222.434L730.17 233.314L734.328 235.372L738.738 243.648L739.704 248.185L740.292 250.915L738.486 256.88L745.206 257.384L750.414 259.695L749.112 266.206L753.522 269.063L753.27 271.667L748.86 275.826L756.63 281.791V289.563L754.446 290.865L750.666 293.175L754.278 299.645L751.674 306.114L731.22 309.475V317.498L725.298 328.882L715.722 330.983L714.252 333.503L708.75 342.913L709.002 348.122L696.57 361.313H691.362L687.204 370.386L680.484 373.999L680.358 376.184L678.678 403.027L683.592 409.496L685.692 418.528L685.944 418.78L691.11 423.191V430.206L703.542 440.834L704.844 452.765L709.506 461.46L718.578 478.39V504.057H699.426C699.426 504.057 699.468 503.847 699.426 503.763C698.712 501.872 694.008 497.755 694.008 497.755L686.784 498.301V489.48H681.66L679.602 486.119V481.204L675.444 480.952L667.17 471.374L668.22 465.955L664.062 466.459L661.962 462.594L662.214 461.46L664.02 453.521L662.718 440.078L658.308 438.524L645.12 424.031L633.99 423.233L620.802 431.004L615.594 432.307L607.572 420.418L586.194 418.822L583.002 418.612L582.666 418.822L575.988 423.779L572.376 419.62L567.798 423.695L548.562 423.779V432.055L544.95 436.969L554.778 447.093L549.36 450.454L536.13 444.237L529.116 452.555L517.23 452.513L513.87 440.876L500.136 437.011V442.977L497.322 444.783L478.422 439.868H470.4L444.78 451.252V456.461L437.262 461.544L434.406 463.477L423.024 465.829L418.866 472.046L413.196 472.55L410.088 479.818L406.224 480.868L406.476 495.907C405.762 498.385 405.846 501.326 406.308 504.225C407.274 510.694 410.13 516.869 410.13 516.869L406.77 519.474L392.826 515.315C383.838 513.55 378.294 508.762 374.934 504.225C371.322 499.352 370.272 494.857 370.272 494.857C369.264 487.841 367.668 485.279 367.668 485.279C359.142 480.364 352.632 462.216 352.632 462.216C352.548 462.006 352.464 461.796 352.38 461.586C346.206 446.715 337.386 439.448 337.386 439.448H328.86L326.256 436.591L311.766 436.087V446.211L302.694 453.185C289.254 449.824 279.72 433.105 279.72 433.105L280.182 423.947L276.108 418.99L250.698 388.198L223.23 386.14L220.92 396.768L171.99 390.802L148.092 376.394L115.794 356.902V347.828H76.44L75.18 333.755L74.634 327.622L67.914 325.018V317.246H61.698L60.732 311.659L55.482 310.273L45.612 298.09L32.676 296.536L28.266 292.923L28.854 291.117L30.828 285.404L29.274 282.589L27.972 279.229L29.778 274.566L27.594 269.147L26.418 266.248L21.504 254.15L19.152 252.049V248.941L22.764 245.076V241.211L16.8 234.196L17.304 218.905L11.886 212.94L12.39 204.664L6.342 195.506L6.972 183.24L8.778 175.426L0 165.05L4.956 158.329L13.986 143.584L12.978 136.317L15.582 131.654L16.632 113.044L26.376 95.3587L33.18 83.0082V76.2869L35.952 72.2542L38.346 68.8095L43.554 52.2582V47.5953L48.216 42.1762L45.36 36.9672L45.696 28.5236L50.022 24.3228L45.906 23.7346L46.158 17.5594L43.554 16.2572V12.0144L46.158 5.04099H49.77L52.122 11.2582L60.648 14.6189L69.72 16.1732V22.3904L65.856 27.8094L60.648 29.6158L61.698 37.8914H69.216L74.424 31.6742V24.4068L76.482 21.8023L72.324 16.3832L75.306 11.1742L76.482 8.35963L74.13 6.00718L76.482 0L108.57 9.91394L148.218 20.542L161.784 23.5246L163.506 23.9027L184.044 27.2213L231.084 34.7828L232.554 34.9508L249.06 36.9252L332.892 47.0912L340.62 47.4273L346.29 47.6793L405.804 50.2838L415.002 49.6537L439.992 47.9734V41.2521L447.006 45.3689V53.8966L461.496 59.1056L465.654 54.4427L476.49 58.0554L479.598 63.2644L490.224 66.8771L498.498 64.2726L516.6 67.1291L521.01 60.1558L526.428 59.6517L533.694 51.8801L533.19 49.0236L535.248 45.1588L554.904 45.915L558.516 48.2674L566.034 62.5082L573.552 62.7603L575.106 58.6015L581.574 62.4662L582.078 69.2296L586.236 72.0441L586.404 77.5052L586.446 79.5636L590.856 79.8156V85.2347L595.77 88.8474L597.87 93.5103L615.468 92.5021L641.97 91.956L652.512 102.332L660.786 114.766L657.678 120.101H646.17L640.374 113.464L638.568 114.514L639.282 120.101L639.828 124.344L634.41 134.174L638.022 149.213L629.748 155.934L629.37 162.74L628.992 169.125L620.466 171.94V176.351L630.042 176.855L642.348 162.698L643.776 161.06L656.46 161.816L667.59 153.036L675.36 153.288L677.418 149.129L675.612 145.516L667.338 146.567L666.036 140.602L674.31 132.578L688.296 125.058L699.174 125.563L697.62 120.648L699.048 120.059L714.966 113.422L718.872 105.399L729.75 95.8207L771.162 86.2009L773.766 79.2275L780.15 77.4212H780.192L781.746 74.3125L781.998 69.3976L785.652 68.0953L785.4 62.6763L782.292 56.207L786.576 34.8668H815.094L821.898 56.207L828.114 56.459L828.828 63.1384L840 64.5666Z" stroke="#F0F1F2" stroke-width="2.94737" stroke-miterlimit="10" mask="url(#path-1-inside-1)"></path><mask id="mask0" maskUnits="userSpaceOnUse" x="0" y="0" width="840" height="520"><path d="M840 64.5666V69.7337L831.39 77.5472L824.838 83.4703L817.32 83.2183L811.65 86.3269L813.204 92.5441V96.955L799.974 103.424L797.664 112.498V129.595L808.038 142.03L806.736 147.239L795.858 151.65V158.623L788.046 162.866L782.88 165.638H774.354L760.914 179.375L762.972 181.433L765.324 196.977L761.628 205.504L756.546 217.182L753.186 216.678L752.43 210.965L744.072 210.503L749.826 220.543L756.546 228.567L753.69 240.497L749.028 248.143H744.45L745.122 239.489L741.174 233.272L735.378 230.247L734.79 222.434L736.596 212.604L733.782 210.797L727.314 217.519L729.666 222.434L730.17 233.314L734.328 235.372L738.738 243.648L739.704 248.185L740.292 250.915L738.486 256.88L745.206 257.384L750.414 259.695L749.112 266.206L753.522 269.063L753.27 271.667L748.86 275.826L756.63 281.791V289.563L754.446 290.865L750.666 293.175L754.278 299.645L751.674 306.114L731.22 309.475V317.498L725.298 328.882L715.722 330.983L714.252 333.503L708.75 342.913L709.002 348.122L696.57 361.313H691.362L687.204 370.386L680.484 373.999L680.358 376.184L678.678 403.027L683.592 409.496L685.692 418.528L685.944 418.78L691.11 423.191V430.206L703.542 440.834L704.844 452.765L709.506 461.46L718.578 478.39V504.057H699.426C699.426 504.057 699.468 503.847 699.426 503.763C698.712 501.872 694.008 497.755 694.008 497.755L686.784 498.301V489.48H681.66L679.602 486.119V481.204L675.444 480.952L667.17 471.374L668.22 465.955L664.062 466.459L661.962 462.594L662.214 461.46L664.02 453.521L662.718 440.078L658.308 438.524L645.12 424.031L633.99 423.233L620.802 431.004L615.594 432.307L607.572 420.418L586.194 418.822L583.002 418.612L582.666 418.822L575.988 423.779L572.376 419.62L567.798 423.695L548.562 423.779V432.055L544.95 436.969L554.778 447.093L549.36 450.454L536.13 444.237L529.116 452.555L517.23 452.513L513.87 440.876L500.136 437.011V442.977L497.322 444.783L478.422 439.868H470.4L444.78 451.252V456.461L437.262 461.544L434.406 463.477L423.024 465.829L418.866 472.046L413.196 472.55L410.088 479.818L406.224 480.868L406.476 495.907C405.762 498.385 405.846 501.326 406.308 504.225C407.274 510.694 410.13 516.869 410.13 516.869L406.77 519.474L392.826 515.315C383.838 513.55 378.294 508.762 374.934 504.225C371.322 499.352 370.272 494.857 370.272 494.857C369.264 487.841 367.668 485.279 367.668 485.279C359.142 480.364 352.632 462.216 352.632 462.216C352.548 462.006 352.464 461.796 352.38 461.586C346.206 446.715 337.386 439.448 337.386 439.448H328.86L326.256 436.591L311.766 436.087V446.211L302.694 453.185C289.254 449.824 279.72 433.105 279.72 433.105L280.182 423.947L276.108 418.99L250.698 388.198L223.23 386.14L220.92 396.768L171.99 390.802L148.092 376.394L115.794 356.902V347.828H76.44L75.18 333.755L74.634 327.622L67.914 325.018V317.246H61.698L60.732 311.659L55.482 310.273L45.612 298.09L32.676 296.536L28.266 292.923L28.854 291.117L30.828 285.404L29.274 282.589L27.972 279.229L29.778 274.566L27.594 269.147L26.418 266.248L21.504 254.15L19.152 252.049V248.941L22.764 245.076V241.211L16.8 234.196L17.304 218.905L11.886 212.94L12.39 204.664L6.342 195.506L6.972 183.24L8.778 175.426L0 165.05L4.956 158.329L13.986 143.584L12.978 136.317L15.582 131.654L16.632 113.044L26.376 95.3587L33.18 83.0082V76.2869L35.952 72.2542L38.346 68.8095L43.554 52.2582V47.5953L48.216 42.1762L45.36 36.9672L45.696 28.5236L50.022 24.3228L45.906 23.7346L46.158 17.5594L43.554 16.2572V12.0144L46.158 5.04099H49.77L52.122 11.2582L60.648 14.6189L69.72 16.1732V22.3904L65.856 27.8094L60.648 29.6158L61.698 37.8914H69.216L74.424 31.6742V24.4068L76.482 21.8023L72.324 16.3832L75.306 11.1742L76.482 8.35963L74.13 6.00718L76.482 0L108.57 9.91394L148.218 20.542L161.784 23.5246L163.506 23.9027L184.044 27.2213L231.084 34.7828L232.554 34.9508L249.06 36.9252L332.892 47.0912L340.62 47.4273L346.29 47.6793L405.804 50.2838L415.002 49.6537L439.992 47.9734V41.2521L447.006 45.3689V53.8966L461.496 59.1056L465.654 54.4427L476.49 58.0554L479.598 63.2644L490.224 66.8771L498.498 64.2726L516.6 67.1291L521.01 60.1558L526.428 59.6517L533.694 51.8801L533.19 49.0236L535.248 45.1588L554.904 45.915L558.516 48.2674L566.034 62.5082L573.552 62.7603L575.106 58.6015L581.574 62.4662L582.078 69.2296L586.236 72.0441L586.404 77.5052L586.446 79.5636L590.856 79.8156V85.2347L595.77 88.8474L597.87 93.5103L615.468 92.5021L641.97 91.956L652.512 102.332L660.786 114.766L657.678 120.101H646.17L640.374 113.464L638.568 114.514L639.282 120.101L639.828 124.344L634.41 134.174L638.022 149.213L629.748 155.934L629.37 162.74L628.992 169.125L620.466 171.94V176.351L630.042 176.855L642.348 162.698L643.776 161.06L656.46 161.816L667.59 153.036L675.36 153.288L677.418 149.129L675.612 145.516L667.338 146.567L666.036 140.602L674.31 132.578L688.296 125.058L699.174 125.563L697.62 120.648L699.048 120.059L714.966 113.422L718.872 105.399L729.75 95.8207L771.162 86.2009L773.766 79.2275L780.15 77.4212H780.192L781.746 74.3125L781.998 69.3976L785.652 68.0953L785.4 62.6763L782.292 56.207L786.576 34.8668H815.094L821.898 56.207L828.114 56.459L828.828 63.1384L840 64.5666Z" fill="#C4C4C4"></path></mask><g mask="url(#mask0)"><rect x="-0.756836" y="-638.007" width="1.47368" height="1757.37" transform="rotate(15 -0.756836 -638.007)" fill="#F0F1F2"></rect><rect x="4.9375" y="-636.481" width="1.47368" height="1757.37" transform="rotate(15 4.9375 -636.481)" fill="#F0F1F2"></rect><rect x="10.6299" y="-634.956" width="1.47368" height="1757.37" transform="rotate(15 10.6299 -634.956)" fill="#F0F1F2"></rect><rect x="16.3242" y="-633.43" width="1.47368" height="1757.37" transform="rotate(15 16.3242 -633.43)" fill="#F0F1F2"></rect><rect x="22.0186" y="-631.904" width="1.47368" height="1757.37" transform="rotate(15 22.0186 -631.904)" fill="#F0F1F2"></rect><rect x="27.7129" y="-630.378" width="1.47368" height="1757.37" transform="rotate(15 27.7129 -630.378)" fill="#F0F1F2"></rect><rect x="33.4053" y="-628.853" width="1.47368" height="1757.37" transform="rotate(15 33.4053 -628.853)" fill="#F0F1F2"></rect><rect x="39.0986" y="-627.327" width="1.47368" height="1757.37" transform="rotate(15 39.0986 -627.327)" fill="#F0F1F2"></rect><rect x="44.793" y="-625.802" width="1.47368" height="1757.37" transform="rotate(15 44.793 -625.802)" fill="#F0F1F2"></rect><rect x="50.4873" y="-624.276" width="1.47368" height="1757.37" transform="rotate(15 50.4873 -624.276)" fill="#F0F1F2"></rect><rect x="56.1807" y="-622.75" width="1.47368" height="1757.37" transform="rotate(15 56.1807 -622.75)" fill="#F0F1F2"></rect><rect x="61.875" y="-621.225" width="1.47368" height="1757.37" transform="rotate(15 61.875 -621.225)" fill="#F0F1F2"></rect><rect x="67.5693" y="-619.698" width="1.47368" height="1757.37" transform="rotate(15 67.5693 -619.698)" fill="#F0F1F2"></rect><rect x="73.2637" y="-618.173" width="1.47368" height="1757.37" transform="rotate(15 73.2637 -618.173)" fill="#F0F1F2"></rect><rect x="78.957" y="-616.648" width="1.47368" height="1757.37" transform="rotate(15 78.957 -616.648)" fill="#F0F1F2"></rect><rect x="84.6504" y="-615.122" width="1.47368" height="1757.37" transform="rotate(15 84.6504 -615.122)" fill="#F0F1F2"></rect><rect x="90.3447" y="-613.596" width="1.47368" height="1757.37" transform="rotate(15 90.3447 -613.596)" fill="#F0F1F2"></rect><rect x="96.0391" y="-612.071" width="1.47368" height="1757.37" transform="rotate(15 96.0391 -612.071)" fill="#F0F1F2"></rect><rect x="101.733" y="-610.545" width="1.47368" height="1757.37" transform="rotate(15 101.733 -610.545)" fill="#F0F1F2"></rect><rect x="107.427" y="-609.019" width="1.47368" height="1757.37" transform="rotate(15 107.427 -609.019)" fill="#F0F1F2"></rect><rect x="113.12" y="-607.493" width="1.47368" height="1757.37" transform="rotate(15 113.12 -607.493)" fill="#F0F1F2"></rect><rect x="118.814" y="-605.968" width="1.47368" height="1757.37" transform="rotate(15 118.814 -605.968)" fill="#F0F1F2"></rect><rect x="124.509" y="-604.442" width="1.47368" height="1757.37" transform="rotate(15 124.509 -604.442)" fill="#F0F1F2"></rect><rect x="130.201" y="-602.917" width="1.47368" height="1757.37" transform="rotate(15 130.201 -602.917)" fill="#F0F1F2"></rect><rect x="135.896" y="-601.391" width="1.47368" height="1757.37" transform="rotate(15 135.896 -601.391)" fill="#F0F1F2"></rect><rect x="141.59" y="-599.865" width="1.47368" height="1757.37" transform="rotate(15 141.59 -599.865)" fill="#F0F1F2"></rect><rect x="147.284" y="-598.339" width="1.47368" height="1757.37" transform="rotate(15 147.284 -598.339)" fill="#F0F1F2"></rect><rect x="152.978" y="-596.814" width="1.47368" height="1757.37" transform="rotate(15 152.978 -596.814)" fill="#F0F1F2"></rect><rect x="158.671" y="-595.288" width="1.47368" height="1757.37" transform="rotate(15 158.671 -595.288)" fill="#F0F1F2"></rect><rect x="164.365" y="-593.762" width="1.47368" height="1757.37" transform="rotate(15 164.365 -593.762)" fill="#F0F1F2"></rect><rect x="170.06" y="-592.237" width="1.47368" height="1757.37" transform="rotate(15 170.06 -592.237)" fill="#F0F1F2"></rect><rect x="175.752" y="-590.711" width="1.47368" height="1757.37" transform="rotate(15 175.752 -590.711)" fill="#F0F1F2"></rect><rect x="181.446" y="-589.185" width="1.47368" height="1757.37" transform="rotate(15 181.446 -589.185)" fill="#F0F1F2"></rect><rect x="187.141" y="-587.66" width="1.47368" height="1757.37" transform="rotate(15 187.141 -587.66)" fill="#F0F1F2"></rect><rect x="192.835" y="-586.134" width="1.47368" height="1757.37" transform="rotate(15 192.835 -586.134)" fill="#F0F1F2"></rect><rect x="198.529" y="-584.609" width="1.47368" height="1757.37" transform="rotate(15 198.529 -584.609)" fill="#F0F1F2"></rect><rect x="204.222" y="-583.083" width="1.47368" height="1757.37" transform="rotate(15 204.222 -583.083)" fill="#F0F1F2"></rect><rect x="209.916" y="-581.557" width="1.47368" height="1757.37" transform="rotate(15 209.916 -581.557)" fill="#F0F1F2"></rect><rect x="215.61" y="-580.031" width="1.47368" height="1757.37" transform="rotate(15 215.61 -580.031)" fill="#F0F1F2"></rect><rect x="221.305" y="-578.506" width="1.47368" height="1757.37" transform="rotate(15 221.305 -578.506)" fill="#F0F1F2"></rect><rect x="226.997" y="-576.98" width="1.47368" height="1757.37" transform="rotate(15 226.997 -576.98)" fill="#F0F1F2"></rect><rect x="232.691" y="-575.455" width="1.47368" height="1757.37" transform="rotate(15 232.691 -575.455)" fill="#F0F1F2"></rect><rect x="238.386" y="-573.929" width="1.47368" height="1757.37" transform="rotate(15 238.386 -573.929)" fill="#F0F1F2"></rect><rect x="244.08" y="-572.403" width="1.47368" height="1757.37" transform="rotate(15 244.08 -572.403)" fill="#F0F1F2"></rect><rect x="249.772" y="-570.877" width="1.47368" height="1757.37" transform="rotate(15 249.772 -570.877)" fill="#F0F1F2"></rect><rect x="255.467" y="-569.352" width="1.47368" height="1757.37" transform="rotate(15 255.467 -569.352)" fill="#F0F1F2"></rect><rect x="261.16" y="-567.826" width="1.47368" height="1757.37" transform="rotate(15 261.16 -567.826)" fill="#F0F1F2"></rect><rect x="266.855" y="-566.301" width="1.47368" height="1757.37" transform="rotate(15 266.855 -566.301)" fill="#F0F1F2"></rect><rect x="272.55" y="-564.774" width="1.47368" height="1757.37" transform="rotate(15 272.55 -564.774)" fill="#F0F1F2"></rect><rect x="278.243" y="-563.249" width="1.47368" height="1757.37" transform="rotate(15 278.243 -563.249)" fill="#F0F1F2"></rect><rect x="283.938" y="-561.723" width="1.47368" height="1757.37" transform="rotate(15 283.938 -561.723)" fill="#F0F1F2"></rect><rect x="289.631" y="-560.198" width="1.47368" height="1757.37" transform="rotate(15 289.631 -560.198)" fill="#F0F1F2"></rect><rect x="295.325" y="-558.672" width="1.47368" height="1757.37" transform="rotate(15 295.325 -558.672)" fill="#F0F1F2"></rect><rect x="301.019" y="-557.146" width="1.47368" height="1757.37" transform="rotate(15 301.019 -557.146)" fill="#F0F1F2"></rect><rect x="306.713" y="-555.621" width="1.47368" height="1757.37" transform="rotate(15 306.713 -555.621)" fill="#F0F1F2"></rect><rect x="312.407" y="-554.095" width="1.47368" height="1757.37" transform="rotate(15 312.407 -554.095)" fill="#F0F1F2"></rect><rect x="318.101" y="-552.57" width="1.47368" height="1757.37" transform="rotate(15 318.101 -552.57)" fill="#F0F1F2"></rect><rect x="323.793" y="-551.044" width="1.47368" height="1757.37" transform="rotate(15 323.793 -551.044)" fill="#F0F1F2"></rect><rect x="329.487" y="-549.518" width="1.47368" height="1757.37" transform="rotate(15 329.487 -549.518)" fill="#F0F1F2"></rect><rect x="335.182" y="-547.992" width="1.47368" height="1757.37" transform="rotate(15 335.182 -547.992)" fill="#F0F1F2"></rect><rect x="340.875" y="-546.467" width="1.47368" height="1757.37" transform="rotate(15 340.875 -546.467)" fill="#F0F1F2"></rect><rect x="346.568" y="-544.941" width="1.47368" height="1757.37" transform="rotate(15 346.568 -544.941)" fill="#F0F1F2"></rect><rect x="352.263" y="-543.415" width="1.47368" height="1757.37" transform="rotate(15 352.263 -543.415)" fill="#F0F1F2"></rect><rect x="357.957" y="-541.89" width="1.47368" height="1757.37" transform="rotate(15 357.957 -541.89)" fill="#F0F1F2"></rect><rect x="363.651" y="-540.364" width="1.47368" height="1757.37" transform="rotate(15 363.651 -540.364)" fill="#F0F1F2"></rect><rect x="369.345" y="-538.839" width="1.47368" height="1757.37" transform="rotate(15 369.345 -538.839)" fill="#F0F1F2"></rect><rect x="375.038" y="-537.313" width="1.47368" height="1757.37" transform="rotate(15 375.038 -537.313)" fill="#F0F1F2"></rect><rect x="380.732" y="-535.788" width="1.47368" height="1757.37" transform="rotate(15 380.732 -535.788)" fill="#F0F1F2"></rect><rect x="386.426" y="-534.262" width="1.47368" height="1757.37" transform="rotate(15 386.426 -534.262)" fill="#F0F1F2"></rect><rect x="392.12" y="-532.735" width="1.47368" height="1757.37" transform="rotate(15 392.12 -532.735)" fill="#F0F1F2"></rect><rect x="397.814" y="-531.21" width="1.47368" height="1757.37" transform="rotate(15 397.814 -531.21)" fill="#F0F1F2"></rect><rect x="403.509" y="-529.684" width="1.47368" height="1757.37" transform="rotate(15 403.509 -529.684)" fill="#F0F1F2"></rect><rect x="409.203" y="-528.158" width="1.47368" height="1757.37" transform="rotate(15 409.203 -528.158)" fill="#F0F1F2"></rect><rect x="414.896" y="-526.633" width="1.47368" height="1757.37" transform="rotate(15 414.896 -526.633)" fill="#F0F1F2"></rect><rect x="420.589" y="-525.108" width="1.47368" height="1757.37" transform="rotate(15 420.589 -525.108)" fill="#F0F1F2"></rect><rect x="426.283" y="-523.581" width="1.47368" height="1757.37" transform="rotate(15 426.283 -523.581)" fill="#F0F1F2"></rect><rect x="431.978" y="-522.056" width="1.47368" height="1757.37" transform="rotate(15 431.978 -522.056)" fill="#F0F1F2"></rect><rect x="437.671" y="-520.531" width="1.47368" height="1757.37" transform="rotate(15 437.671 -520.531)" fill="#F0F1F2"></rect><rect x="443.364" y="-519.005" width="1.47368" height="1757.37" transform="rotate(15 443.364 -519.005)" fill="#F0F1F2"></rect><rect x="449.059" y="-517.479" width="1.47368" height="1757.37" transform="rotate(15 449.059 -517.479)" fill="#F0F1F2"></rect><rect x="454.753" y="-515.954" width="1.47368" height="1757.37" transform="rotate(15 454.753 -515.954)" fill="#F0F1F2"></rect><rect x="460.447" y="-514.428" width="1.47368" height="1757.37" transform="rotate(15 460.447 -514.428)" fill="#F0F1F2"></rect><rect x="466.14" y="-512.902" width="1.47368" height="1757.37" transform="rotate(15 466.14 -512.902)" fill="#F0F1F2"></rect><rect x="471.834" y="-511.376" width="1.47368" height="1757.37" transform="rotate(15 471.834 -511.376)" fill="#F0F1F2"></rect><rect x="477.527" y="-509.851" width="1.47368" height="1757.37" transform="rotate(15 477.527 -509.851)" fill="#F0F1F2"></rect><rect x="483.222" y="-508.325" width="1.47368" height="1757.37" transform="rotate(15 483.222 -508.325)" fill="#F0F1F2"></rect><rect x="488.916" y="-506.799" width="1.47368" height="1757.37" transform="rotate(15 488.916 -506.799)" fill="#F0F1F2"></rect><rect x="494.61" y="-505.273" width="1.47368" height="1757.37" transform="rotate(15 494.61 -505.273)" fill="#F0F1F2"></rect><rect x="500.305" y="-503.748" width="1.47368" height="1757.37" transform="rotate(15 500.305 -503.748)" fill="#F0F1F2"></rect><rect x="505.998" y="-502.222" width="1.47368" height="1757.37" transform="rotate(15 505.998 -502.222)" fill="#F0F1F2"></rect><rect x="511.69" y="-500.697" width="1.47368" height="1757.37" transform="rotate(15 511.69 -500.697)" fill="#F0F1F2"></rect><rect x="517.385" y="-499.171" width="1.47368" height="1757.37" transform="rotate(15 517.385 -499.171)" fill="#F0F1F2"></rect><rect x="523.078" y="-497.645" width="1.47368" height="1757.37" transform="rotate(15 523.078 -497.645)" fill="#F0F1F2"></rect><rect x="528.772" y="-496.12" width="1.47368" height="1757.37" transform="rotate(15 528.772 -496.12)" fill="#F0F1F2"></rect><rect x="534.466" y="-494.594" width="1.47368" height="1757.37" transform="rotate(15 534.466 -494.594)" fill="#F0F1F2"></rect><rect x="540.16" y="-493.068" width="1.47368" height="1757.37" transform="rotate(15 540.16 -493.068)" fill="#F0F1F2"></rect><rect x="545.854" y="-491.542" width="1.47368" height="1757.37" transform="rotate(15 545.854 -491.542)" fill="#F0F1F2"></rect><rect x="551.549" y="-490.017" width="1.47368" height="1757.37" transform="rotate(15 551.549 -490.017)" fill="#F0F1F2"></rect><rect x="557.243" y="-488.492" width="1.47368" height="1757.37" transform="rotate(15 557.243 -488.492)" fill="#F0F1F2"></rect><rect x="562.935" y="-486.966" width="1.47368" height="1757.37" transform="rotate(15 562.935 -486.966)" fill="#F0F1F2"></rect><rect x="568.629" y="-485.44" width="1.47368" height="1757.37" transform="rotate(15 568.629 -485.44)" fill="#F0F1F2"></rect><rect x="574.323" y="-483.915" width="1.47368" height="1757.37" transform="rotate(15 574.323 -483.915)" fill="#F0F1F2"></rect><rect x="580.018" y="-482.389" width="1.47368" height="1757.37" transform="rotate(15 580.018 -482.389)" fill="#F0F1F2"></rect><rect x="585.712" y="-480.863" width="1.47368" height="1757.37" transform="rotate(15 585.712 -480.863)" fill="#F0F1F2"></rect><rect x="591.406" y="-479.337" width="1.47368" height="1757.37" transform="rotate(15 591.406 -479.337)" fill="#F0F1F2"></rect><rect x="597.101" y="-477.812" width="1.47368" height="1757.37" transform="rotate(15 597.101 -477.812)" fill="#F0F1F2"></rect><rect x="602.795" y="-476.287" width="1.47368" height="1757.37" transform="rotate(15 602.795 -476.287)" fill="#F0F1F2"></rect><rect x="608.486" y="-474.76" width="1.47368" height="1757.37" transform="rotate(15 608.486 -474.76)" fill="#F0F1F2"></rect><rect x="614.181" y="-473.235" width="1.47368" height="1757.37" transform="rotate(15 614.181 -473.235)" fill="#F0F1F2"></rect><rect x="619.874" y="-471.709" width="1.47368" height="1757.37" transform="rotate(15 619.874 -471.709)" fill="#F0F1F2"></rect><rect x="625.569" y="-470.183" width="1.47368" height="1757.37" transform="rotate(15 625.569 -470.183)" fill="#F0F1F2"></rect><rect x="631.263" y="-468.658" width="1.47368" height="1757.37" transform="rotate(15 631.263 -468.658)" fill="#F0F1F2"></rect><rect x="636.957" y="-467.132" width="1.47368" height="1757.37" transform="rotate(15 636.957 -467.132)" fill="#F0F1F2"></rect><rect x="642.65" y="-465.607" width="1.47368" height="1757.37" transform="rotate(15 642.65 -465.607)" fill="#F0F1F2"></rect><rect x="648.345" y="-464.081" width="1.47368" height="1757.37" transform="rotate(15 648.345 -464.081)" fill="#F0F1F2"></rect><rect x="654.038" y="-462.555" width="1.47368" height="1757.37" transform="rotate(15 654.038 -462.555)" fill="#F0F1F2"></rect><rect x="659.73" y="-461.03" width="1.47368" height="1757.37" transform="rotate(15 659.73 -461.03)" fill="#F0F1F2"></rect><rect x="665.425" y="-459.504" width="1.47368" height="1757.37" transform="rotate(15 665.425 -459.504)" fill="#F0F1F2"></rect><rect x="671.119" y="-457.978" width="1.47368" height="1757.37" transform="rotate(15 671.119 -457.978)" fill="#F0F1F2"></rect><rect x="676.814" y="-456.452" width="1.47368" height="1757.37" transform="rotate(15 676.814 -456.452)" fill="#F0F1F2"></rect><rect x="682.507" y="-454.926" width="1.47368" height="1757.37" transform="rotate(15 682.507 -454.926)" fill="#F0F1F2"></rect><rect x="688.201" y="-453.401" width="1.47368" height="1757.37" transform="rotate(15 688.201 -453.401)" fill="#F0F1F2"></rect><rect x="693.896" y="-451.876" width="1.47368" height="1757.37" transform="rotate(15 693.896 -451.876)" fill="#F0F1F2"></rect><rect x="699.59" y="-450.35" width="1.47368" height="1757.37" transform="rotate(15 699.59 -450.35)" fill="#F0F1F2"></rect><rect x="705.282" y="-448.824" width="1.47368" height="1757.37" transform="rotate(15 705.282 -448.824)" fill="#F0F1F2"></rect><rect x="710.977" y="-447.298" width="1.47368" height="1757.37" transform="rotate(15 710.977 -447.298)" fill="#F0F1F2"></rect><rect x="716.671" y="-445.773" width="1.47368" height="1757.37" transform="rotate(15 716.671 -445.773)" fill="#F0F1F2"></rect><rect x="722.365" y="-444.247" width="1.47368" height="1757.37" transform="rotate(15 722.365 -444.247)" fill="#F0F1F2"></rect><rect x="728.058" y="-442.721" width="1.47368" height="1757.37" transform="rotate(15 728.058 -442.721)" fill="#F0F1F2"></rect><rect x="733.752" y="-441.195" width="1.47368" height="1757.37" transform="rotate(15 733.752 -441.195)" fill="#F0F1F2"></rect><rect x="739.446" y="-439.67" width="1.47368" height="1757.37" transform="rotate(15 739.446 -439.67)" fill="#F0F1F2"></rect><rect x="745.141" y="-438.144" width="1.47368" height="1757.37" transform="rotate(15 745.141 -438.144)" fill="#F0F1F2"></rect><rect x="750.834" y="-436.618" width="1.47368" height="1757.37" transform="rotate(15 750.834 -436.618)" fill="#F0F1F2"></rect><rect x="756.527" y="-435.093" width="1.47368" height="1757.37" transform="rotate(15 756.527 -435.093)" fill="#F0F1F2"></rect><rect x="762.222" y="-433.567" width="1.47368" height="1757.37" transform="rotate(15 762.222 -433.567)" fill="#F0F1F2"></rect><rect x="767.917" y="-432.042" width="1.47368" height="1757.37" transform="rotate(15 767.917 -432.042)" fill="#F0F1F2"></rect><rect x="773.61" y="-430.515" width="1.47368" height="1757.37" transform="rotate(15 773.61 -430.515)" fill="#F0F1F2"></rect><rect x="779.304" y="-428.99" width="1.47368" height="1757.37" transform="rotate(15 779.304 -428.99)" fill="#F0F1F2"></rect><rect x="784.998" y="-427.465" width="1.47368" height="1757.37" transform="rotate(15 784.998 -427.465)" fill="#F0F1F2"></rect><rect x="790.692" y="-425.939" width="1.47368" height="1757.37" transform="rotate(15 790.692 -425.939)" fill="#F0F1F2"></rect><rect x="796.387" y="-424.413" width="1.47368" height="1757.37" transform="rotate(15 796.387 -424.413)" fill="#F0F1F2"></rect><rect x="802.078" y="-422.887" width="1.47368" height="1757.37" transform="rotate(15 802.078 -422.887)" fill="#F0F1F2"></rect><rect x="807.772" y="-421.362" width="1.47368" height="1757.37" transform="rotate(15 807.772 -421.362)" fill="#F0F1F2"></rect><rect x="813.467" y="-419.836" width="1.47368" height="1757.37" transform="rotate(15 813.467 -419.836)" fill="#F0F1F2"></rect><rect x="819.161" y="-418.31" width="1.47368" height="1757.37" transform="rotate(15 819.161 -418.31)" fill="#F0F1F2"></rect><rect x="824.854" y="-416.785" width="1.47368" height="1757.37" transform="rotate(15 824.854 -416.785)" fill="#F0F1F2"></rect><rect x="830.548" y="-415.26" width="1.47368" height="1757.37" transform="rotate(15 830.548 -415.26)" fill="#F0F1F2"></rect><rect x="836.242" y="-413.734" width="1.47368" height="1757.37" transform="rotate(15 836.242 -413.734)" fill="#F0F1F2"></rect><rect x="841.937" y="-412.208" width="1.47368" height="1757.37" transform="rotate(15 841.937 -412.208)" fill="#F0F1F2"></rect><rect x="847.63" y="-410.682" width="1.47368" height="1757.37" transform="rotate(15 847.63 -410.682)" fill="#F0F1F2"></rect><rect x="853.323" y="-409.157" width="1.47368" height="1757.37" transform="rotate(15 853.323 -409.157)" fill="#F0F1F2"></rect><rect x="859.017" y="-407.631" width="1.47368" height="1757.37" transform="rotate(15 859.017 -407.631)" fill="#F0F1F2"></rect><rect x="864.712" y="-406.105" width="1.47368" height="1757.37" transform="rotate(15 864.712 -406.105)" fill="#F0F1F2"></rect><rect x="870.405" y="-404.579" width="1.47368" height="1757.37" transform="rotate(15 870.405 -404.579)" fill="#F0F1F2"></rect><rect x="876.1" y="-403.054" width="1.47368" height="1757.37" transform="rotate(15 876.1 -403.054)" fill="#F0F1F2"></rect><rect x="881.794" y="-401.528" width="1.47368" height="1757.37" transform="rotate(15 881.794 -401.528)" fill="#F0F1F2"></rect><rect x="887.488" y="-400.003" width="1.47368" height="1757.37" transform="rotate(15 887.488 -400.003)" fill="#F0F1F2"></rect><rect x="893.183" y="-398.477" width="1.47368" height="1757.37" transform="rotate(15 893.183 -398.477)" fill="#F0F1F2"></rect><rect x="898.874" y="-396.951" width="1.47368" height="1757.37" transform="rotate(15 898.874 -396.951)" fill="#F0F1F2"></rect><rect x="904.568" y="-395.426" width="1.47368" height="1757.37" transform="rotate(15 904.568 -395.426)" fill="#F0F1F2"></rect><rect x="910.263" y="-393.9" width="1.47368" height="1757.37" transform="rotate(15 910.263 -393.9)" fill="#F0F1F2"></rect><rect x="915.957" y="-392.374" width="1.47368" height="1757.37" transform="rotate(15 915.957 -392.374)" fill="#F0F1F2"></rect><rect x="921.65" y="-390.848" width="1.47368" height="1757.37" transform="rotate(15 921.65 -390.848)" fill="#F0F1F2"></rect><rect x="927.345" y="-389.323" width="1.47368" height="1757.37" transform="rotate(15 927.345 -389.323)" fill="#F0F1F2"></rect><rect x="933.039" y="-387.797" width="1.47368" height="1757.37" transform="rotate(15 933.039 -387.797)" fill="#F0F1F2"></rect><rect x="938.732" y="-386.271" width="1.47368" height="1757.37" transform="rotate(15 938.732 -386.271)" fill="#F0F1F2"></rect><rect x="944.426" y="-384.746" width="1.47368" height="1757.37" transform="rotate(15 944.426 -384.746)" fill="#F0F1F2"></rect><rect x="950.119" y="-383.221" width="1.47368" height="1757.37" transform="rotate(15 950.119 -383.221)" fill="#F0F1F2"></rect><rect x="955.813" y="-381.695" width="1.47368" height="1757.37" transform="rotate(15 955.813 -381.695)" fill="#F0F1F2"></rect><rect x="961.508" y="-380.168" width="1.47368" height="1757.37" transform="rotate(15 961.508 -380.168)" fill="#F0F1F2"></rect><rect x="967.201" y="-378.643" width="1.47368" height="1757.37" transform="rotate(15 967.201 -378.643)" fill="#F0F1F2"></rect><rect x="972.896" y="-377.118" width="1.47368" height="1757.37" transform="rotate(15 972.896 -377.118)" fill="#F0F1F2"></rect><rect x="978.59" y="-375.592" width="1.47368" height="1757.37" transform="rotate(15 978.59 -375.592)" fill="#F0F1F2"></rect><rect x="984.283" y="-374.066" width="1.47368" height="1757.37" transform="rotate(15 984.283 -374.066)" fill="#F0F1F2"></rect><rect x="989.979" y="-372.539" width="1.47368" height="1757.37" transform="rotate(15 989.979 -372.539)" fill="#F0F1F2"></rect><rect x="995.672" y="-371.014" width="1.47368" height="1757.37" transform="rotate(15 995.672 -371.014)" fill="#F0F1F2"></rect><rect x="1001.37" y="-369.489" width="1.47368" height="1757.37" transform="rotate(15 1001.37 -369.489)" fill="#F0F1F2"></rect><rect x="1007.06" y="-367.963" width="1.47368" height="1757.37" transform="rotate(15 1007.06 -367.963)" fill="#F0F1F2"></rect><rect x="1012.75" y="-366.438" width="1.47368" height="1757.37" transform="rotate(15 1012.75 -366.438)" fill="#F0F1F2"></rect><rect x="1018.45" y="-364.912" width="1.47368" height="1757.37" transform="rotate(15 1018.45 -364.912)" fill="#F0F1F2"></rect><rect x="1024.14" y="-363.386" width="1.47368" height="1757.37" transform="rotate(15 1024.14 -363.386)" fill="#F0F1F2"></rect><rect x="1029.83" y="-361.861" width="1.47368" height="1757.37" transform="rotate(15 1029.83 -361.861)" fill="#F0F1F2"></rect><rect x="1035.53" y="-360.335" width="1.47368" height="1757.37" transform="rotate(15 1035.53 -360.335)" fill="#F0F1F2"></rect><rect x="1041.22" y="-358.808" width="1.47368" height="1757.37" transform="rotate(15 1041.22 -358.808)" fill="#F0F1F2"></rect><rect x="1046.92" y="-357.283" width="1.47368" height="1757.37" transform="rotate(15 1046.92 -357.283)" fill="#F0F1F2"></rect><rect x="1052.61" y="-355.758" width="1.47368" height="1757.37" transform="rotate(15 1052.61 -355.758)" fill="#F0F1F2"></rect><rect x="1058.3" y="-354.232" width="1.47368" height="1757.37" transform="rotate(15 1058.3 -354.232)" fill="#F0F1F2"></rect><rect x="1064" y="-352.706" width="1.47368" height="1757.37" transform="rotate(15 1064 -352.706)" fill="#F0F1F2"></rect><rect x="1069.69" y="-351.181" width="1.47368" height="1757.37" transform="rotate(15 1069.69 -351.181)" fill="#F0F1F2"></rect><rect x="1075.39" y="-349.655" width="1.47368" height="1757.37" transform="rotate(15 1075.39 -349.655)" fill="#F0F1F2"></rect><rect x="1081.08" y="-348.129" width="1.47368" height="1757.37" transform="rotate(15 1081.08 -348.129)" fill="#F0F1F2"></rect><rect x="1086.77" y="-346.603" width="1.47368" height="1757.37" transform="rotate(15 1086.77 -346.603)" fill="#F0F1F2"></rect><rect x="1092.47" y="-345.078" width="1.47368" height="1757.37" transform="rotate(15 1092.47 -345.078)" fill="#F0F1F2"></rect><rect x="1098.16" y="-343.552" width="1.47368" height="1757.37" transform="rotate(15 1098.16 -343.552)" fill="#F0F1F2"></rect><rect x="1103.85" y="-342.027" width="1.47368" height="1757.37" transform="rotate(15 1103.85 -342.027)" fill="#F0F1F2"></rect><rect x="1109.55" y="-340.501" width="1.47368" height="1757.37" transform="rotate(15 1109.55 -340.501)" fill="#F0F1F2"></rect><rect x="1115.24" y="-338.975" width="1.47368" height="1757.37" transform="rotate(15 1115.24 -338.975)" fill="#F0F1F2"></rect><rect x="1120.94" y="-337.449" width="1.47368" height="1757.37" transform="rotate(15 1120.94 -337.449)" fill="#F0F1F2"></rect><rect x="1126.63" y="-335.924" width="1.47368" height="1757.37" transform="rotate(15 1126.63 -335.924)" fill="#F0F1F2"></rect><rect x="1132.33" y="-334.398" width="1.47368" height="1757.37" transform="rotate(15 1132.33 -334.398)" fill="#F0F1F2"></rect><rect x="1138.02" y="-332.873" width="1.47368" height="1757.37" transform="rotate(15 1138.02 -332.873)" fill="#F0F1F2"></rect><rect x="1143.71" y="-331.347" width="1.47368" height="1757.37" transform="rotate(15 1143.71 -331.347)" fill="#F0F1F2"></rect><rect x="1149.41" y="-329.822" width="1.47368" height="1757.37" transform="rotate(15 1149.41 -329.822)" fill="#F0F1F2"></rect><rect x="1155.1" y="-328.296" width="1.47368" height="1757.37" transform="rotate(15 1155.1 -328.296)" fill="#F0F1F2"></rect><rect x="1160.79" y="-326.77" width="1.47368" height="1757.37" transform="rotate(15 1160.79 -326.77)" fill="#F0F1F2"></rect><rect x="1166.49" y="-325.244" width="1.47368" height="1757.37" transform="rotate(15 1166.49 -325.244)" fill="#F0F1F2"></rect><rect x="1172.18" y="-323.719" width="1.47368" height="1757.37" transform="rotate(15 1172.18 -323.719)" fill="#F0F1F2"></rect><rect x="1177.88" y="-322.193" width="1.47368" height="1757.37" transform="rotate(15 1177.88 -322.193)" fill="#F0F1F2"></rect><rect x="1183.57" y="-320.667" width="1.47368" height="1757.37" transform="rotate(15 1183.57 -320.667)" fill="#F0F1F2"></rect><rect x="1189.26" y="-319.142" width="1.47368" height="1757.37" transform="rotate(15 1189.26 -319.142)" fill="#F0F1F2"></rect><rect x="1194.96" y="-317.616" width="1.47368" height="1757.37" transform="rotate(15 1194.96 -317.616)" fill="#F0F1F2"></rect><rect x="1200.65" y="-316.091" width="1.47368" height="1757.37" transform="rotate(15 1200.65 -316.091)" fill="#F0F1F2"></rect><rect x="1206.34" y="-314.564" width="1.47368" height="1757.37" transform="rotate(15 1206.34 -314.564)" fill="#F0F1F2"></rect><rect x="1212.04" y="-313.039" width="1.47368" height="1757.37" transform="rotate(15 1212.04 -313.039)" fill="#F0F1F2"></rect><rect x="1217.73" y="-311.514" width="1.47368" height="1757.37" transform="rotate(15 1217.73 -311.514)" fill="#F0F1F2"></rect><rect x="1223.43" y="-309.988" width="1.47368" height="1757.37" transform="rotate(15 1223.43 -309.988)" fill="#F0F1F2"></rect><rect x="1229.12" y="-308.462" width="1.47368" height="1757.37" transform="rotate(15 1229.12 -308.462)" fill="#F0F1F2"></rect><rect x="1234.81" y="-306.936" width="1.47368" height="1757.37" transform="rotate(15 1234.81 -306.936)" fill="#F0F1F2"></rect><rect x="1240.51" y="-305.411" width="1.47368" height="1757.37" transform="rotate(15 1240.51 -305.411)" fill="#F0F1F2"></rect><rect x="1246.2" y="-303.885" width="1.47368" height="1757.37" transform="rotate(15 1246.2 -303.885)" fill="#F0F1F2"></rect><rect x="1251.9" y="-302.359" width="1.47368" height="1757.37" transform="rotate(15 1251.9 -302.359)" fill="#F0F1F2"></rect><rect x="1257.59" y="-300.834" width="1.47368" height="1757.37" transform="rotate(15 1257.59 -300.834)" fill="#F0F1F2"></rect><rect x="1263.28" y="-299.308" width="1.47368" height="1757.37" transform="rotate(15 1263.28 -299.308)" fill="#F0F1F2"></rect><rect x="1268.98" y="-297.782" width="1.47368" height="1757.37" transform="rotate(15 1268.98 -297.782)" fill="#F0F1F2"></rect><rect x="1274.67" y="-296.256" width="1.47368" height="1757.37" transform="rotate(15 1274.67 -296.256)" fill="#F0F1F2"></rect><rect x="1280.37" y="-294.731" width="1.47368" height="1757.37" transform="rotate(15 1280.37 -294.731)" fill="#F0F1F2"></rect><rect x="1286.06" y="-293.206" width="1.47368" height="1757.37" transform="rotate(15 1286.06 -293.206)" fill="#F0F1F2"></rect><rect x="1291.75" y="-291.679" width="1.47368" height="1757.37" transform="rotate(15 1291.75 -291.679)" fill="#F0F1F2"></rect></g></svg>