<svg xmlns="http://www.w3.org/2000/svg" width="180" height="56" viewBox="0 0 180 56" fill="none"><path d="M11.463 36.04C10.663 39.208 9.92697 42.36 9.25497 45.496C8.61497 48.6 7.92697 51.736 7.19097 54.904H6.99897C6.99897 54.84 6.98297 54.76 6.95097 54.664C6.91897 54.568 6.91897 54.488 6.95097 54.424C7.11097 53.176 7.25497 51.944 7.38297 50.728C7.51097 49.48 7.68697 48.232 7.91097 46.984C8.16697 45.224 8.47097 43.496 8.82297 41.8C9.17497 40.072 9.57497 38.344 10.023 36.616C10.055 36.488 10.071 36.36 10.071 36.232C10.103 36.104 10.135 35.96 10.167 35.8C9.30297 35.64 8.43897 35.512 7.57497 35.416C6.71097 35.32 5.86297 35.048 5.03097 34.6C5.92697 34.696 6.80697 34.792 7.67097 34.888C8.53497 34.984 9.43097 35.08 10.359 35.176C10.423 35.016 10.471 34.872 10.503 34.744C10.535 34.584 10.567 34.456 10.599 34.36C11.111 32.28 11.607 30.232 12.087 28.216C12.567 26.168 13.079 24.104 13.623 22.024C13.687 21.64 13.767 21.256 13.863 20.872C13.991 20.488 14.119 20.12 14.247 19.768C14.279 19.704 14.295 19.624 14.295 19.528C14.327 19.4 14.375 19.304 14.439 19.24C14.503 19.176 14.583 19.112 14.679 19.048C14.807 18.984 14.903 18.952 14.967 18.952C15.287 18.952 15.447 19.16 15.447 19.576C15.383 20.024 15.319 20.504 15.255 21.016C15.223 21.496 15.175 21.976 15.111 22.456C14.663 22.968 14.407 23.528 14.343 24.136C14.279 24.744 14.151 25.336 13.959 25.912C13.799 26.456 13.655 27.032 13.527 27.64C13.399 28.248 13.255 28.84 13.095 29.416C12.935 30.088 12.759 30.76 12.567 31.432C12.407 32.072 12.247 32.744 12.087 33.448C12.055 33.576 12.023 33.704 11.991 33.832C11.991 33.96 11.975 34.072 11.943 34.168C12.199 34.328 12.439 34.504 12.663 34.696C12.887 34.856 13.127 35 13.383 35.128C13.479 35.192 13.591 35.24 13.719 35.272C13.847 35.272 13.959 35.272 14.055 35.272C14.791 35.208 15.495 35.16 16.167 35.128C16.871 35.064 17.559 34.984 18.231 34.888C19.255 34.728 20.295 34.584 21.351 34.456C22.407 34.296 23.447 34.088 24.471 33.832C26.551 33.32 28.599 32.696 30.615 31.96C32.631 31.224 34.599 30.328 36.519 29.272C37.543 28.696 38.567 28.104 39.591 27.496C40.615 26.888 41.639 26.248 42.663 25.576C43.815 24.776 44.871 23.88 45.831 22.888C46.823 21.896 47.783 20.856 48.711 19.768C49.031 19.32 49.303 18.872 49.527 18.424C49.783 17.976 49.959 17.48 50.055 16.936C50.215 16.04 50.231 15.176 50.103 14.344C50.007 13.512 49.655 12.728 49.047 11.992C48.471 11.256 47.831 10.616 47.127 10.072C46.455 9.49597 45.703 8.99997 44.871 8.58397C43.783 8.10397 42.679 7.75197 41.559 7.52797C40.439 7.30397 39.319 7.07997 38.199 6.85597C36.567 6.53597 34.951 6.40797 33.351 6.47197C31.783 6.53597 30.199 6.69597 28.599 6.95197C26.903 7.14397 25.239 7.39997 23.607 7.71997C21.975 8.00797 20.343 8.42397 18.711 8.96797C16.567 9.63997 14.471 10.424 12.423 11.32C10.375 12.216 8.43897 13.352 6.61497 14.728C6.26297 14.952 5.92697 15.176 5.60697 15.4C5.28697 15.592 4.96697 15.816 4.64697 16.072C4.29497 16.328 3.95897 16.6 3.63897 16.888C3.28697 17.144 2.96697 17.416 2.67897 17.704C2.32697 18.056 1.99097 18.44 1.67097 18.856C1.35097 19.24 1.17497 19.704 1.14297 20.248C0.662969 20.152 0.470969 19.896 0.566969 19.48C0.662969 19 0.822969 18.648 1.04697 18.424C1.33497 18.072 1.62297 17.72 1.91097 17.368C2.16697 17.016 2.47097 16.696 2.82297 16.408C4.16697 15.352 5.52697 14.344 6.90297 13.384C8.31097 12.424 9.78297 11.576 11.319 10.84C13.239 9.94397 15.175 9.17597 17.127 8.53597C19.111 7.86397 21.159 7.31997 23.271 6.90397C24.871 6.55197 26.455 6.27997 28.023 6.08797C29.623 5.86397 31.239 5.71997 32.871 5.65597C34.215 5.59197 35.543 5.65597 36.855 5.84797C38.167 6.00797 39.495 6.19997 40.839 6.42397C41.703 6.58397 42.535 6.80797 43.335 7.09597C44.167 7.38397 44.999 7.71997 45.831 8.10397C47.879 9.06397 49.415 10.536 50.439 12.52C51.015 13.576 51.271 14.648 51.207 15.736C51.175 16.792 50.887 17.848 50.343 18.904C50.151 19.352 49.911 19.768 49.623 20.152C49.367 20.504 49.095 20.856 48.807 21.208C46.279 24.184 43.351 26.664 40.023 28.648C35.799 31.176 31.271 33.112 26.439 34.456C25.415 34.808 24.359 35.064 23.271 35.224C22.183 35.384 21.079 35.544 19.959 35.704C19.063 35.864 18.151 35.992 17.223 36.088C16.295 36.152 15.367 36.232 14.439 36.328C14.471 36.392 14.503 36.472 14.535 36.568C14.599 36.632 14.663 36.712 14.727 36.808C15.591 37.704 16.471 38.568 17.367 39.4C18.295 40.2 19.287 40.936 20.343 41.608C21.687 42.44 23.047 43.256 24.423 44.056C25.799 44.856 27.239 45.528 28.743 46.072C30.663 46.84 32.615 47.432 34.599 47.848C36.583 48.264 38.599 48.44 40.647 48.376C42.247 48.344 43.815 48.264 45.351 48.136C46.887 48.008 48.423 47.672 49.959 47.128C50.055 47.096 50.215 47.08 50.439 47.08C50.439 47.144 50.455 47.192 50.487 47.224C50.039 47.416 49.623 47.608 49.239 47.8C48.855 47.96 48.439 48.104 47.991 48.232C44.727 49.16 41.367 49.544 37.911 49.384C35.991 49.32 34.135 49.064 32.343 48.616C30.583 48.168 28.839 47.544 27.111 46.744C25.287 45.944 23.543 45.048 21.879 44.056C20.215 43.032 18.647 41.848 17.175 40.504C16.535 39.96 15.927 39.384 15.351 38.776C14.775 38.168 14.215 37.544 13.671 36.904C13.415 36.616 13.159 36.392 12.903 36.232C12.679 36.072 12.391 36.008 12.039 36.04H11.463Z" fill="#001029"></path><path d="M57.9127 33.976C57.8487 33.976 57.8167 33.96 57.8167 33.928C57.4327 33.736 57.2727 33.48 57.3367 33.16C57.4007 33 57.5127 32.856 57.6727 32.728C57.8327 32.568 57.9927 32.488 58.1527 32.488C58.4727 32.488 58.6967 32.472 58.8247 32.44C59.1767 32.44 59.4007 32.632 59.4967 33.016C59.5607 33.432 59.4807 33.912 59.2567 34.456C59.0327 35 58.7287 35.4 58.3447 35.656C57.9927 35.784 57.8167 35.688 57.8167 35.368C57.8167 35.144 57.8167 34.92 57.8167 34.696C57.8487 34.472 57.8807 34.232 57.9127 33.976Z" fill="#001029"></path><path d="M75.054 45.832C75.438 46.056 75.934 45.88 76.542 45.304C77.182 44.728 77.87 43.928 78.606 42.904C79.374 41.848 80.174 40.648 81.006 39.304C81.87 37.96 82.702 36.616 83.502 35.272C84.334 33.896 85.118 32.616 85.854 31.432C86.59 30.216 87.214 29.24 87.726 28.504C88.174 27.864 88.43 27.128 88.494 26.296C88.59 25.176 88.734 23.784 88.926 22.12C89.15 20.424 89.486 18.76 89.934 17.128C90.382 15.496 90.974 14.04 91.71 12.76C92.446 11.48 93.406 10.664 94.59 10.312C94.974 10.184 95.326 10.2 95.646 10.36C95.966 10.52 96.206 10.808 96.366 11.224C96.654 11.832 96.702 12.472 96.51 13.144C96.158 14.488 95.726 15.768 95.214 16.984C94.734 18.2 94.19 19.416 93.582 20.632C93.006 21.816 92.382 23.016 91.71 24.232C91.07 25.416 90.414 26.648 89.742 27.928C89.614 28.152 89.55 28.424 89.55 28.744C89.39 31.144 89.294 33.576 89.262 36.04C89.23 38.504 89.342 40.936 89.598 43.336C89.822 45.128 90.094 46.856 90.414 48.52C90.766 50.184 91.278 51.688 91.95 53.032C92.302 53.672 92.654 54.024 93.006 54.088C93.358 54.152 93.838 53.944 94.446 53.464C94.83 53.112 95.198 52.744 95.55 52.36C96.99 50.568 98.27 48.728 99.39 46.84C100.542 44.952 101.614 43.016 102.606 41.032C104.046 38.248 105.31 35.368 106.398 32.392C107.486 29.416 108.478 26.424 109.374 23.416C110.302 20.376 111.166 17.352 111.966 14.344C112.766 11.304 113.582 8.32797 114.414 5.41597C114.574 4.96797 114.702 4.50397 114.798 4.02397C114.926 3.51197 115.054 2.99997 115.182 2.48797C115.246 2.32797 115.31 2.18397 115.374 2.05597C115.438 1.89597 115.55 1.73597 115.71 1.57597C115.678 1.70397 115.662 1.81597 115.662 1.91197C115.662 2.00797 115.646 2.11997 115.614 2.24797C115.454 3.30397 115.278 4.35997 115.086 5.41597C114.894 6.43997 114.686 7.47997 114.462 8.53597C113.726 12.216 112.862 15.848 111.87 19.432C110.878 22.984 109.758 26.536 108.51 30.088C107.934 31.72 107.246 33.528 106.446 35.512C105.646 37.496 104.766 39.48 103.806 41.464C102.846 43.416 101.838 45.288 100.782 47.08C99.758 48.872 98.718 50.408 97.662 51.688C97.214 52.264 96.766 52.808 96.318 53.32C95.87 53.832 95.358 54.232 94.782 54.52C93.278 55.416 92.014 55.16 90.99 53.752C90.03 52.12 89.374 50.376 89.022 48.52C88.702 46.664 88.446 44.872 88.254 43.144C88.126 42.056 88.062 40.952 88.062 39.832C88.062 38.712 88.078 37.608 88.11 36.52C88.142 35.4 88.174 34.312 88.206 33.256C88.27 32.168 88.302 31.144 88.302 30.184C86.766 32.552 85.15 35.016 83.454 37.576C81.758 40.136 80.094 42.552 78.462 44.824C78.206 45.176 77.886 45.56 77.502 45.976C77.15 46.392 76.766 46.68 76.35 46.84C75.678 47.224 75.07 47.336 74.526 47.176C73.982 47.016 73.582 46.568 73.326 45.832C73.038 45.096 72.862 44.344 72.798 43.576C72.766 42.808 72.766 42.024 72.798 41.224C72.83 40.168 73.006 38.92 73.326 37.48C73.646 36.008 74.014 34.52 74.43 33.016C74.846 31.512 75.278 30.088 75.726 28.744C76.206 27.368 76.638 26.232 77.022 25.336C77.374 24.568 77.694 23.816 77.982 23.08C78.302 22.344 78.638 21.608 78.99 20.872C79.502 19.912 80.094 18.84 80.766 17.656C81.47 16.472 82.062 15.432 82.542 14.536C82.382 14.6 82.254 14.664 82.158 14.728C82.062 14.76 81.982 14.792 81.918 14.824C79.678 15.816 77.678 17.064 75.918 18.568C74.19 20.072 72.654 21.752 71.31 23.608C69.966 25.464 68.782 27.464 67.758 29.608C66.734 31.72 65.838 33.88 65.07 36.088C65.07 35.96 65.086 35.848 65.118 35.752C65.118 35.624 65.118 35.48 65.118 35.32C65.182 34.168 65.454 32.872 65.934 31.432C66.446 29.96 67.102 28.472 67.902 26.968C68.734 25.464 69.694 23.976 70.782 22.504C71.87 21 73.054 19.64 74.334 18.424C75.614 17.176 76.974 16.12 78.414 15.256C79.854 14.36 81.326 13.752 82.83 13.432C83.214 13.368 83.534 13.384 83.79 13.48C84.046 13.544 84.126 13.752 84.03 14.104C83.966 14.264 83.886 14.408 83.79 14.536C83.726 14.664 83.662 14.792 83.598 14.92C82.734 16.2 81.918 17.496 81.15 18.808C80.414 20.12 79.758 21.48 79.182 22.888C78.702 24.008 78.206 25.304 77.694 26.776C77.182 28.216 76.686 29.72 76.206 31.288C75.758 32.856 75.342 34.424 74.958 35.992C74.606 37.528 74.35 38.968 74.19 40.312C74.062 41.624 74.046 42.776 74.142 43.768C74.27 44.728 74.574 45.416 75.054 45.832ZM94.302 11.656C93.758 12.2 93.278 12.792 92.862 13.432C92.478 14.04 92.142 14.664 91.854 15.304C91.246 16.744 90.782 18.168 90.462 19.576C90.174 20.984 89.95 22.456 89.79 23.992C89.758 24.312 89.726 24.632 89.694 24.952C89.694 25.272 89.662 25.608 89.598 25.96C91.07 23.528 92.254 21.256 93.15 19.144C94.046 17.032 94.862 14.872 95.598 12.664C95.726 12.248 95.758 11.944 95.694 11.752C95.662 11.528 95.566 11.4 95.406 11.368C95.278 11.304 95.102 11.304 94.878 11.368C94.686 11.432 94.494 11.528 94.302 11.656Z" fill="#001029"></path><path d="M113.109 33.448C113.173 33.096 113.221 32.776 113.253 32.488C113.285 32.2 113.333 31.928 113.397 31.672C113.589 30.712 113.813 29.64 114.069 28.456C114.357 27.272 114.597 26.2 114.789 25.24C114.821 25.144 114.885 25.032 114.981 24.904C115.077 24.744 115.205 24.68 115.365 24.712C115.589 24.712 115.717 24.792 115.749 24.952C115.813 25.08 115.845 25.224 115.845 25.384C115.781 25.832 115.685 26.392 115.557 27.064C115.429 27.736 115.333 28.296 115.269 28.744C115.141 29.384 115.013 30.024 114.885 30.664C114.789 31.272 114.693 31.88 114.597 32.488C114.565 32.712 114.549 32.92 114.549 33.112C114.549 33.304 114.549 33.48 114.549 33.64C114.581 33.896 114.677 34.088 114.837 34.216C114.997 34.344 115.189 34.36 115.413 34.264C115.765 34.104 116.037 33.944 116.229 33.784C117.669 32.888 119.013 31.96 120.261 31C121.509 30.04 122.789 29.016 124.101 27.928C124.229 27.8 124.325 27.816 124.389 27.976C124.453 28.104 124.453 28.216 124.389 28.312C123.909 28.824 123.413 29.32 122.901 29.8C122.421 30.28 121.925 30.776 121.413 31.288C120.645 31.96 119.861 32.616 119.061 33.256C118.261 33.896 117.397 34.472 116.469 34.984C116.277 35.08 116.085 35.176 115.893 35.272C115.701 35.368 115.509 35.448 115.317 35.512C114.485 35.704 113.877 35.416 113.493 34.648C113.429 34.456 113.365 34.248 113.301 34.024C113.237 33.8 113.173 33.608 113.109 33.448ZM117.333 23.944C117.205 23.912 117.045 23.896 116.853 23.896C116.693 23.864 116.581 23.816 116.517 23.752C116.005 23.272 115.557 22.824 115.173 22.408C115.141 22.344 115.125 22.232 115.125 22.072C115.125 21.912 115.141 21.8 115.173 21.736C115.237 21.704 115.333 21.704 115.461 21.736C115.589 21.736 115.701 21.736 115.797 21.736C115.893 21.736 115.941 21.768 115.941 21.832C116.197 22.184 116.437 22.52 116.661 22.84C116.917 23.128 117.157 23.448 117.381 23.8V23.848C117.349 23.912 117.333 23.944 117.333 23.944Z" fill="#001029"></path><path d="M132.54 25.528C132.188 26.072 131.788 26.632 131.34 27.208C130.924 27.784 130.54 28.36 130.188 28.936C129.676 29.672 129.18 30.424 128.7 31.192C128.22 31.96 127.756 32.744 127.308 33.544C127.052 34.024 126.828 34.44 126.636 34.792C126.444 35.112 126.268 35.448 126.108 35.8C125.948 36.12 125.788 36.472 125.628 36.856C125.5 37.208 125.356 37.64 125.196 38.152C124.62 39.88 124.124 41.64 123.708 43.432C123.292 45.224 123.052 47.032 122.988 48.856C122.988 49.08 122.988 49.288 122.988 49.48C122.956 49.672 122.94 49.896 122.94 50.152C122.876 50.312 122.796 50.456 122.7 50.584C122.604 50.712 122.46 50.808 122.268 50.872C121.916 50.872 121.66 50.712 121.5 50.392C121.34 49.688 121.244 49.016 121.212 48.376C121.116 47.32 121.084 46.248 121.116 45.16C121.148 44.072 121.244 43 121.404 41.944C121.788 38.968 122.252 36.04 122.796 33.16C123.308 30.248 123.916 27.336 124.62 24.424C125.42 20.744 126.236 17.144 127.068 13.624C127.932 10.104 128.732 6.55197 129.468 2.96797C129.532 2.61597 129.596 2.29597 129.66 2.00797C129.724 1.68797 129.788 1.36797 129.852 1.04797C130.012 0.503969 130.188 0.27997 130.38 0.37597C130.572 0.471967 130.604 0.791967 130.476 1.33597C130.188 2.77597 129.932 4.19997 129.708 5.60797C129.516 6.98397 129.26 8.34397 128.94 9.68797C128.332 12.792 127.644 15.8 126.876 18.712C126.108 21.624 125.452 24.568 124.908 27.544C124.62 28.984 124.364 30.456 124.14 31.96C123.884 33.432 123.644 34.92 123.42 36.424C123.228 37.384 123.068 38.36 122.94 39.352C122.812 40.312 122.668 41.272 122.508 42.232C122.476 42.584 122.476 42.952 122.508 43.336C122.892 41.416 123.388 39.656 123.996 38.056C124.572 36.424 125.26 34.904 126.06 33.496C126.86 32.056 127.788 30.68 128.844 29.368C129.9 28.056 131.084 26.744 132.396 25.432C132.428 25.432 132.444 25.448 132.444 25.48C132.444 25.512 132.476 25.528 132.54 25.528Z" fill="#001029"></path><path d="M135.331 30.616C134.915 30.168 134.515 29.72 134.131 29.272C133.779 28.792 133.411 28.328 133.027 27.88C132.579 27.368 132.323 26.84 132.259 26.296C132.195 25.72 132.275 25.16 132.499 24.616C132.659 24.232 132.851 23.88 133.075 23.56C133.299 23.24 133.539 22.952 133.795 22.696C134.179 22.248 134.579 21.832 134.995 21.448C135.443 21.032 135.891 20.6 136.339 20.152C136.499 20.056 136.675 19.976 136.867 19.912C137.059 19.816 137.251 19.736 137.443 19.672C137.475 19.672 137.603 19.752 137.827 19.912L137.587 20.152C136.819 20.824 136.083 21.528 135.379 22.264C134.675 22.968 134.083 23.768 133.603 24.664C133.411 25.016 133.299 25.4 133.267 25.816C133.267 26.232 133.395 26.616 133.651 26.968C134.067 27.48 134.483 27.992 134.899 28.504C135.315 28.984 135.715 29.48 136.099 29.992C137.187 29.288 138.211 28.664 139.171 28.12C140.131 27.576 141.091 27.096 142.051 26.68C143.011 26.232 144.003 25.832 145.027 25.48C146.051 25.096 147.171 24.728 148.387 24.376C148.419 24.408 148.435 24.44 148.435 24.472C148.435 24.504 148.451 24.552 148.483 24.616C148.323 24.68 148.147 24.76 147.955 24.856C147.795 24.952 147.619 25.048 147.427 25.144C146.851 25.432 146.339 25.688 145.891 25.912C145.475 26.136 145.059 26.36 144.643 26.584C144.259 26.808 143.843 27.032 143.395 27.256C142.947 27.48 142.419 27.736 141.811 28.024C141.075 28.472 140.339 28.936 139.603 29.416C138.867 29.864 138.131 30.312 137.395 30.76L137.299 30.856C137.267 30.888 137.235 30.904 137.203 30.904C137.363 31.352 137.523 31.816 137.683 32.296C137.875 32.744 138.035 33.208 138.163 33.688C138.227 34.008 138.259 34.344 138.259 34.696C138.259 35.048 138.211 35.368 138.115 35.656C137.667 37 137.059 38.248 136.291 39.4C135.523 40.52 134.579 41.48 133.459 42.28C133.235 42.472 132.995 42.632 132.739 42.76C132.483 42.856 132.243 42.968 132.019 43.096C131.475 43.288 130.947 43.352 130.435 43.288C129.923 43.192 129.491 43 129.139 42.712C128.755 42.392 128.467 41.992 128.275 41.512C128.083 41.032 128.035 40.504 128.131 39.928C128.291 39.032 128.547 38.216 128.899 37.48C129.251 36.712 129.699 35.976 130.243 35.272C130.883 34.504 131.571 33.8 132.307 33.16C133.043 32.52 133.779 31.88 134.515 31.24C134.611 31.176 134.723 31.096 134.851 31C135.011 30.872 135.171 30.744 135.331 30.616ZM136.243 31.576C136.019 31.736 135.827 31.864 135.667 31.96C135.539 32.056 135.395 32.184 135.235 32.344C134.339 33.048 133.475 33.8 132.643 34.6C131.843 35.368 131.123 36.264 130.483 37.288C129.875 38.152 129.539 39.176 129.475 40.36C129.443 41 129.619 41.464 130.003 41.752C130.355 42.04 130.819 42.104 131.395 41.944C131.651 41.816 131.891 41.688 132.115 41.56C132.371 41.432 132.611 41.288 132.835 41.128C133.859 40.456 134.707 39.64 135.379 38.68C136.051 37.688 136.611 36.632 137.059 35.512C137.283 34.776 137.267 34.104 137.011 33.496C136.787 32.888 136.531 32.248 136.243 31.576Z" fill="#001029"></path><path d="M153.017 27.592C154.713 27.368 156.233 26.968 157.577 26.392C158.921 25.816 160.249 25.032 161.561 24.04V24.136C161.561 24.168 161.577 24.184 161.609 24.184C161.577 24.248 161.545 24.36 161.513 24.52C161.513 24.648 161.481 24.744 161.417 24.808C160.169 26.024 158.889 26.904 157.577 27.448C156.265 27.992 154.745 28.36 153.017 28.552C152.857 28.552 152.729 28.552 152.633 28.552C152.569 28.552 152.505 28.632 152.441 28.792C152.217 29.24 151.897 29.736 151.481 30.28C151.065 30.792 150.601 31.272 150.089 31.72C149.577 32.168 149.033 32.568 148.457 32.92C147.913 33.24 147.385 33.448 146.873 33.544C145.945 33.64 145.289 33.416 144.905 32.872C144.617 32.488 144.473 32.056 144.473 31.576C144.441 31.064 144.489 30.552 144.617 30.04C144.713 29.496 144.841 28.984 145.001 28.504C145.193 27.992 145.369 27.544 145.529 27.16C145.625 26.936 145.641 26.728 145.577 26.536C145.321 25.864 145.353 25.144 145.673 24.376C145.993 23.608 146.473 23.048 147.113 22.696C147.529 22.504 147.961 22.344 148.409 22.216C148.857 22.056 149.337 21.976 149.849 21.976C150.617 21.976 151.273 22.152 151.817 22.504C152.393 22.856 152.825 23.32 153.113 23.896C153.401 24.44 153.545 25.048 153.545 25.72C153.545 26.36 153.369 26.984 153.017 27.592ZM146.585 27.784C146.137 28.488 145.849 29.16 145.721 29.8C145.593 30.44 145.561 31.08 145.625 31.72C145.689 32.04 145.833 32.264 146.057 32.392C146.281 32.488 146.569 32.504 146.921 32.44C147.817 32.248 148.649 31.816 149.417 31.144C150.217 30.44 150.793 29.64 151.145 28.744C149.449 28.904 147.929 28.584 146.585 27.784ZM150.857 27.592C151.305 27.592 151.577 27.576 151.673 27.544C151.769 27.48 151.865 27.304 151.961 27.016C152.185 26.28 152.281 25.576 152.249 24.904C152.249 24.232 151.785 23.688 150.857 23.272C150.697 23.176 150.537 23.112 150.377 23.08C150.249 23.016 150.121 23.112 149.993 23.368C149.993 23.432 149.961 23.48 149.897 23.512C149.833 23.512 149.785 23.544 149.753 23.608C149.305 23.992 148.857 24.392 148.409 24.808C147.961 25.192 147.577 25.64 147.257 26.152C147.161 26.408 147.129 26.584 147.161 26.68C147.193 26.776 147.337 26.888 147.593 27.016C148.233 27.272 148.793 27.432 149.273 27.496C149.753 27.56 150.281 27.592 150.857 27.592ZM146.489 24.856C146.809 24.632 147.193 24.328 147.641 23.944C148.089 23.56 148.489 23.224 148.841 22.936C148.329 23.096 147.833 23.352 147.353 23.704C146.873 24.056 146.585 24.44 146.489 24.856Z" fill="#001029"></path><path d="M179.188 25.72C178.964 25.944 178.772 26.184 178.612 26.44C178.452 26.664 178.244 26.872 177.988 27.064C177.156 27.992 176.308 28.888 175.444 29.752C174.58 30.584 173.7 31.416 172.804 32.248C172.196 32.792 171.572 33.272 170.932 33.688C170.292 34.104 169.684 34.536 169.108 34.984C169.012 35.048 168.884 35.08 168.724 35.08C168.02 35.4 167.428 35.416 166.948 35.128C166.5 34.84 166.244 34.328 166.18 33.592C166.18 32.92 166.196 32.248 166.228 31.576C166.292 30.872 166.356 30.152 166.42 29.416C166.452 28.872 166.5 28.328 166.564 27.784C166.66 27.24 166.756 26.696 166.852 26.152C166.852 26.088 166.836 26.04 166.804 26.008C166.772 25.944 166.756 25.848 166.756 25.72C166.244 25.848 165.796 26.04 165.412 26.296C165.028 26.52 164.644 26.824 164.26 27.208C163.62 27.72 163.028 28.28 162.484 28.888C161.94 29.496 161.476 30.168 161.092 30.904C160.996 31.064 160.868 31.192 160.708 31.288C160.548 31.384 160.372 31.384 160.18 31.288C159.924 31.224 159.796 31.096 159.796 30.904C159.796 30.68 159.796 30.504 159.796 30.376C159.988 29.384 160.164 28.424 160.324 27.496C160.484 26.536 160.676 25.592 160.9 24.664C160.9 24.472 160.964 24.248 161.092 23.992C161.092 23.832 161.124 23.752 161.188 23.752C161.252 23.656 161.332 23.56 161.428 23.464C161.556 23.336 161.636 23.272 161.668 23.272C161.86 23.272 161.972 23.352 162.004 23.512C162.036 23.64 162.052 23.768 162.052 23.896C161.988 24.344 161.924 24.792 161.86 25.24C161.796 25.688 161.732 26.12 161.668 26.536C161.636 26.888 161.604 27.192 161.572 27.448C161.572 27.672 161.524 27.96 161.428 28.312C161.78 27.96 162.116 27.64 162.436 27.352C162.756 27.064 163.06 26.76 163.348 26.44C164.276 25.672 165.22 25.08 166.18 24.664C166.756 24.408 167.204 24.408 167.524 24.664C167.876 24.888 168.036 25.32 168.004 25.96C167.94 26.696 167.86 27.432 167.764 28.168C167.668 28.904 167.588 29.608 167.524 30.28C167.46 30.824 167.428 31.336 167.428 31.816C167.428 32.296 167.428 32.792 167.428 33.304C167.428 33.528 167.508 33.768 167.668 34.024C168.052 34.088 168.436 33.976 168.82 33.688C170.228 32.76 171.556 31.72 172.804 30.568C173.54 29.832 174.308 29.144 175.108 28.504C175.94 27.832 176.772 27.176 177.604 26.536C177.796 26.344 178.004 26.168 178.228 26.008C178.484 25.816 178.74 25.64 178.996 25.48C179.06 25.544 179.124 25.624 179.188 25.72Z" fill="#001029"></path></svg>