<svg xmlns="http://www.w3.org/2000/svg" width="252" height="64" viewBox="0 0 252 64" fill="none"><path d="M44.7914 19.98C44.6714 21.1 44.5514 22.2 44.4314 23.28C44.3514 24.36 44.2314 25.46 44.0714 26.58C43.7514 28.98 43.2114 31.3 42.4514 33.54C41.6914 35.74 40.8314 37.94 39.8714 40.14C39.6314 40.62 39.3914 41.1 39.1514 41.58C38.9114 42.02 38.6714 42.48 38.4314 42.96C36.1914 47.48 33.3514 51.46 29.9114 54.9C28.7114 56.14 27.4314 57.3 26.0714 58.38C24.7114 59.42 23.2514 60.3 21.6914 61.02C21.0514 61.34 20.4114 61.6 19.7714 61.8C19.1714 62 18.5314 62.2 17.8514 62.4C16.9314 62.64 15.9714 62.74 14.9714 62.7C14.0114 62.66 13.0714 62.5 12.1514 62.22C10.8714 61.82 9.73144 61.08 8.73144 60C7.77144 58.84 6.95144 57.64 6.27144 56.4C5.59144 55.12 5.09144 53.72 4.77144 52.2C3.61144 47.04 3.69144 41.96 5.01144 36.96C5.09144 36.72 5.11144 36.52 5.07144 36.36C5.03144 36.16 4.93144 35.96 4.77144 35.76C4.45144 35.44 4.17144 35.1 3.93144 34.74C3.69144 34.38 3.43144 34.04 3.15144 33.72C2.35144 32.56 1.83144 31.34 1.59144 30.06C1.39144 28.74 1.41144 27.38 1.65144 25.98C2.21144 22.38 3.55144 19.22 5.67144 16.5C7.19144 14.58 8.79144 12.8 10.4714 11.16C12.1914 9.51998 14.0714 8.05998 16.1114 6.77998C17.7514 5.77998 19.4114 4.89998 21.0914 4.13998C22.7714 3.33998 24.5314 2.73998 26.3714 2.33998C28.0914 2.01998 29.8114 1.89998 31.5314 1.97998C33.2914 2.01998 35.0114 2.41998 36.6914 3.17998C37.9314 3.73998 38.9914 4.47998 39.8714 5.39998C40.7514 6.31998 41.5114 7.37998 42.1514 8.57998C42.9114 9.97998 43.4714 11.44 43.8314 12.96C44.2314 14.48 44.4714 16.02 44.5514 17.58C44.5914 17.98 44.6114 18.38 44.6114 18.78C44.6114 19.14 44.6314 19.52 44.6714 19.92C44.7114 19.92 44.7514 19.94 44.7914 19.98ZM6.33144 37.32C6.25144 37.52 6.19144 37.66 6.15144 37.74C6.11144 37.82 6.07144 37.9 6.03144 37.98C5.59144 39.98 5.33144 41.96 5.25144 43.92C5.17144 45.88 5.31144 47.86 5.67144 49.86C5.95144 51.38 6.33144 52.86 6.81144 54.3C7.33144 55.7 8.05144 57 8.97144 58.2C9.93144 59.48 11.0314 60.36 12.2714 60.84C13.5114 61.32 14.8514 61.46 16.2914 61.26C18.5714 61.06 20.7314 60.32 22.7714 59.04C24.2914 58.04 25.7514 56.96 27.1514 55.8C28.5514 54.64 29.8314 53.32 30.9914 51.84C32.2714 50.2 33.4914 48.54 34.6514 46.86C35.8114 45.14 36.8514 43.34 37.7714 41.46C38.9314 39.02 39.9714 36.56 40.8914 34.08C41.8114 31.6 42.4714 28.98 42.8714 26.22C43.0714 24.86 43.2114 23.5 43.2914 22.14C43.4114 20.74 43.4314 19.34 43.3514 17.94C43.2714 16.46 43.0514 15.02 42.6914 13.62C42.3714 12.18 41.8914 10.82 41.2514 9.53998C39.6914 6.33998 37.2514 4.39998 33.9314 3.71998C32.5314 3.47998 31.1114 3.37998 29.6714 3.41998C28.2714 3.45998 26.8914 3.67998 25.5314 4.07998C24.1314 4.51998 22.7914 5.03998 21.5114 5.63998C20.2714 6.23998 19.0514 6.87998 17.8514 7.55998C15.6914 8.79998 13.7114 10.26 11.9114 11.94C10.1514 13.62 8.47144 15.46 6.87144 17.46C5.83144 18.7 5.01144 20.06 4.41144 21.54C3.85144 22.98 3.41144 24.52 3.09144 26.16C2.77144 27.76 2.81144 29.22 3.21144 30.54C3.65144 31.82 4.35144 33.04 5.31144 34.2L5.67144 34.38C5.87144 33.82 6.05144 33.24 6.21144 32.64C6.41144 32.04 6.61144 31.46 6.81144 30.9C7.73144 28.74 8.77144 26.7 9.93144 24.78C11.0914 22.86 12.6714 21.22 14.6714 19.86C15.3514 19.38 16.0314 19.12 16.7114 19.08C16.7914 19.04 16.8914 19.04 17.0114 19.08C17.1314 19.12 17.2914 19.16 17.4914 19.2C17.2914 19.32 17.1314 19.42 17.0114 19.5C16.8914 19.58 16.7914 19.66 16.7114 19.74C14.5514 21.02 12.8114 22.68 11.4914 24.72C11.2914 25.12 11.0714 25.5 10.8314 25.86C10.6314 26.18 10.4114 26.52 10.1714 26.88C9.33144 28.12 8.67144 29.44 8.19144 30.84C7.75144 32.24 7.31144 33.68 6.87144 35.16C6.67144 35.56 6.77144 35.88 7.17144 36.12C7.61144 36.32 8.03144 36.52 8.43144 36.72C8.83144 36.92 9.25144 37.12 9.69144 37.32C11.6114 38.04 13.5514 38.48 15.5114 38.64C17.4714 38.76 19.4714 38.74 21.5114 38.58C23.0314 38.42 24.5314 38.1 26.0114 37.62C27.4914 37.14 28.9314 36.62 30.3314 36.06C30.5314 35.98 30.6914 35.92 30.8114 35.88C30.9714 35.8 31.1714 35.72 31.4114 35.64C31.2914 35.76 31.1914 35.9 31.1114 36.06C31.0314 36.14 30.9314 36.2 30.8114 36.24C30.6914 36.28 30.5914 36.34 30.5114 36.42C28.7114 37.38 26.8514 38.18 24.9314 38.82C23.0514 39.42 21.0914 39.78 19.0514 39.9C17.8114 39.98 16.5914 40.02 15.3914 40.02C14.1914 40.02 12.9714 39.86 11.7314 39.54C10.8114 39.26 9.89144 38.96 8.97144 38.64C8.09144 38.32 7.21144 37.88 6.33144 37.32Z" fill="#B1B1B3"></path><path d="M49.4625 37.08C48.8225 37.04 48.5025 36.7 48.5025 36.06C48.5025 35.74 48.6425 35.46 48.9225 35.22C49.2425 34.98 49.5625 34.86 49.8825 34.86C50.4825 34.86 50.7825 35.18 50.7825 35.82C50.7825 36.14 50.6425 36.44 50.3625 36.72C50.1225 36.96 49.8225 37.08 49.4625 37.08Z" fill="#B1B1B3"></path><path d="M65.6166 39.3C64.6166 43.26 63.6966 47.2 62.8566 51.12C62.0566 55 61.1966 58.92 60.2766 62.88H60.0366C60.0366 62.8 60.0166 62.7 59.9766 62.58C59.9366 62.46 59.9366 62.36 59.9766 62.28C60.1766 60.72 60.3566 59.18 60.5166 57.66C60.6766 56.1 60.8966 54.54 61.1766 52.98C61.4966 50.78 61.8766 48.62 62.3166 46.5C62.7566 44.34 63.2566 42.18 63.8166 40.02C63.8566 39.86 63.8766 39.7 63.8766 39.54C63.9166 39.38 63.9566 39.2 63.9966 39C62.9166 38.8 61.8366 38.64 60.7566 38.52C59.6766 38.4 58.6166 38.06 57.5766 37.5C58.6966 37.62 59.7966 37.74 60.8766 37.86C61.9566 37.98 63.0766 38.1 64.2366 38.22C64.3166 38.02 64.3766 37.84 64.4166 37.68C64.4566 37.48 64.4966 37.32 64.5366 37.2C65.1766 34.6 65.7966 32.04 66.3966 29.52C66.9966 26.96 67.6366 24.38 68.3166 21.78C68.3966 21.3 68.4966 20.82 68.6166 20.34C68.7766 19.86 68.9366 19.4 69.0966 18.96C69.1366 18.88 69.1566 18.78 69.1566 18.66C69.1966 18.5 69.2566 18.38 69.3366 18.3C69.4166 18.22 69.5166 18.14 69.6366 18.06C69.7966 17.98 69.9166 17.94 69.9966 17.94C70.3966 17.94 70.5966 18.2 70.5966 18.72C70.5166 19.28 70.4366 19.88 70.3566 20.52C70.3166 21.12 70.2566 21.72 70.1766 22.32C69.6166 22.96 69.2966 23.66 69.2166 24.42C69.1366 25.18 68.9766 25.92 68.7366 26.64C68.5366 27.32 68.3566 28.04 68.1966 28.8C68.0366 29.56 67.8566 30.3 67.6566 31.02C67.4566 31.86 67.2366 32.7 66.9966 33.54C66.7966 34.34 66.5966 35.18 66.3966 36.06C66.3566 36.22 66.3166 36.38 66.2766 36.54C66.2766 36.7 66.2566 36.84 66.2166 36.96C66.5366 37.16 66.8366 37.38 67.1166 37.62C67.3966 37.82 67.6966 38 68.0166 38.16C68.1366 38.24 68.2766 38.3 68.4366 38.34C68.5966 38.34 68.7366 38.34 68.8566 38.34C69.7766 38.26 70.6566 38.2 71.4966 38.16C72.3766 38.08 73.2366 37.98 74.0766 37.86C75.3566 37.66 76.6566 37.48 77.9766 37.32C79.2966 37.12 80.5966 36.86 81.8766 36.54C84.4766 35.9 87.0366 35.12 89.5566 34.2C92.0766 33.28 94.5366 32.16 96.9366 30.84C98.2166 30.12 99.4966 29.38 100.777 28.62C102.057 27.86 103.337 27.06 104.617 26.22C106.057 25.22 107.377 24.1 108.577 22.86C109.817 21.62 111.017 20.32 112.177 18.96C112.577 18.4 112.917 17.84 113.197 17.28C113.517 16.72 113.737 16.1 113.857 15.42C114.057 14.3 114.077 13.22 113.917 12.18C113.797 11.14 113.357 10.16 112.597 9.23998C111.877 8.31998 111.077 7.51998 110.197 6.83998C109.357 6.11998 108.417 5.49998 107.377 4.97998C106.017 4.37998 104.637 3.93998 103.237 3.65998C101.837 3.37998 100.437 3.09998 99.0366 2.81998C96.9966 2.41998 94.9766 2.25998 92.9766 2.33998C91.0166 2.41998 89.0366 2.61998 87.0366 2.93998C84.9166 3.17998 82.8366 3.49998 80.7966 3.89998C78.7566 4.25998 76.7166 4.77998 74.6766 5.45998C71.9966 6.29998 69.3766 7.27998 66.8166 8.39998C64.2566 9.51998 61.8366 10.94 59.5566 12.66C59.1166 12.94 58.6966 13.22 58.2966 13.5C57.8966 13.74 57.4966 14.02 57.0966 14.34C56.6566 14.66 56.2366 15 55.8366 15.36C55.3966 15.68 54.9966 16.02 54.6366 16.38C54.1966 16.82 53.7766 17.3 53.3766 17.82C52.9766 18.3 52.7566 18.88 52.7166 19.56C52.1166 19.44 51.8766 19.12 51.9966 18.6C52.1166 18 52.3166 17.56 52.5966 17.28C52.9566 16.84 53.3166 16.4 53.6766 15.96C53.9966 15.52 54.3766 15.12 54.8166 14.76C56.4966 13.44 58.1966 12.18 59.9166 10.98C61.6766 9.77998 63.5166 8.71998 65.4366 7.79998C67.8366 6.67998 70.2566 5.71998 72.6966 4.91998C75.1766 4.07998 77.7366 3.39998 80.3766 2.87998C82.3766 2.43998 84.3566 2.09998 86.3166 1.85998C88.3166 1.57998 90.3366 1.39998 92.3766 1.31998C94.0566 1.23998 95.7166 1.31998 97.3566 1.55998C98.9966 1.75998 100.657 1.99998 102.337 2.27998C103.417 2.47998 104.457 2.75998 105.457 3.11998C106.497 3.47998 107.537 3.89998 108.577 4.37998C111.137 5.57998 113.057 7.41998 114.337 9.89998C115.057 11.22 115.377 12.56 115.297 13.92C115.257 15.24 114.897 16.56 114.217 17.88C113.977 18.44 113.677 18.96 113.317 19.44C112.997 19.88 112.657 20.32 112.297 20.76C109.137 24.48 105.477 27.58 101.317 30.06C96.0366 33.22 90.3766 35.64 84.3366 37.32C83.0566 37.76 81.7366 38.08 80.3766 38.28C79.0166 38.48 77.6366 38.68 76.2366 38.88C75.1166 39.08 73.9766 39.24 72.8166 39.36C71.6566 39.44 70.4966 39.54 69.3366 39.66C69.3766 39.74 69.4166 39.84 69.4566 39.96C69.5366 40.04 69.6166 40.14 69.6966 40.26C70.7766 41.38 71.8766 42.46 72.9966 43.5C74.1566 44.5 75.3966 45.42 76.7166 46.26C78.3966 47.3 80.0966 48.32 81.8166 49.32C83.5366 50.32 85.3366 51.16 87.2166 51.84C89.6166 52.8 92.0566 53.54 94.5366 54.06C97.0166 54.58 99.5366 54.8 102.097 54.72C104.097 54.68 106.057 54.58 107.977 54.42C109.897 54.26 111.817 53.84 113.737 53.16C113.857 53.12 114.057 53.1 114.337 53.1C114.337 53.18 114.357 53.24 114.397 53.28C113.837 53.52 113.317 53.76 112.837 54C112.357 54.2 111.837 54.38 111.277 54.54C107.197 55.7 102.997 56.18 98.6766 55.98C96.2766 55.9 93.9566 55.58 91.7166 55.02C89.5166 54.46 87.3366 53.68 85.1766 52.68C82.8966 51.68 80.7166 50.56 78.6366 49.32C76.5566 48.04 74.5966 46.56 72.7566 44.88C71.9566 44.2 71.1966 43.48 70.4766 42.72C69.7566 41.96 69.0566 41.18 68.3766 40.38C68.0566 40.02 67.7366 39.74 67.4166 39.54C67.1366 39.34 66.7766 39.26 66.3366 39.3H65.6166Z" fill="#B1B1B3"></path><path d="M125.899 28.74C128.019 28.46 129.919 27.96 131.599 27.24C133.279 26.52 134.939 25.54 136.579 24.3V24.42C136.579 24.46 136.599 24.48 136.639 24.48C136.599 24.56 136.559 24.7 136.519 24.9C136.519 25.06 136.479 25.18 136.399 25.26C134.839 26.78 133.239 27.88 131.599 28.56C129.959 29.24 128.059 29.7 125.899 29.94C125.699 29.94 125.539 29.94 125.419 29.94C125.339 29.94 125.259 30.04 125.179 30.24C124.899 30.8 124.499 31.42 123.979 32.1C123.459 32.74 122.879 33.34 122.239 33.9C121.599 34.46 120.919 34.96 120.199 35.4C119.519 35.8 118.859 36.06 118.219 36.18C117.059 36.3 116.239 36.02 115.759 35.34C115.399 34.86 115.219 34.32 115.219 33.72C115.179 33.08 115.239 32.44 115.399 31.8C115.519 31.12 115.679 30.48 115.879 29.88C116.119 29.24 116.339 28.68 116.539 28.2C116.659 27.92 116.679 27.66 116.599 27.42C116.279 26.58 116.319 25.68 116.719 24.72C117.119 23.76 117.719 23.06 118.519 22.62C119.039 22.38 119.579 22.18 120.139 22.02C120.699 21.82 121.299 21.72 121.939 21.72C122.899 21.72 123.719 21.94 124.399 22.38C125.119 22.82 125.659 23.4 126.019 24.12C126.379 24.8 126.559 25.56 126.559 26.4C126.559 27.2 126.339 27.98 125.899 28.74ZM117.859 28.98C117.299 29.86 116.939 30.7 116.779 31.5C116.619 32.3 116.579 33.1 116.659 33.9C116.739 34.3 116.919 34.58 117.199 34.74C117.479 34.86 117.839 34.88 118.279 34.8C119.399 34.56 120.439 34.02 121.399 33.18C122.399 32.3 123.119 31.3 123.559 30.18C121.439 30.38 119.539 29.98 117.859 28.98ZM123.199 28.74C123.759 28.74 124.099 28.72 124.219 28.68C124.339 28.6 124.459 28.38 124.579 28.02C124.859 27.1 124.979 26.22 124.939 25.38C124.939 24.54 124.359 23.86 123.199 23.34C122.999 23.22 122.799 23.14 122.599 23.1C122.439 23.02 122.279 23.14 122.119 23.46C122.119 23.54 122.079 23.6 121.999 23.64C121.919 23.64 121.859 23.68 121.819 23.76C121.259 24.24 120.699 24.74 120.139 25.26C119.579 25.74 119.099 26.3 118.699 26.94C118.579 27.26 118.539 27.48 118.579 27.6C118.619 27.72 118.799 27.86 119.119 28.02C119.919 28.34 120.619 28.54 121.219 28.62C121.819 28.7 122.479 28.74 123.199 28.74ZM117.739 25.32C118.139 25.04 118.619 24.66 119.179 24.18C119.739 23.7 120.239 23.28 120.679 22.92C120.039 23.12 119.419 23.44 118.819 23.88C118.219 24.32 117.859 24.8 117.739 25.32Z" fill="#B1B1B3"></path><path d="M126.727 60C126.727 59.8 126.707 59.62 126.667 59.46C126.627 59.26 126.647 59.06 126.727 58.86C127.847 54.26 129.007 49.74 130.207 45.3C131.407 40.82 132.587 36.4 133.747 32.04C134.867 27.64 135.927 23.28 136.927 18.96C137.967 14.6 138.887 10.22 139.687 5.81998C139.807 5.09998 139.907 4.37998 139.987 3.65998C140.067 2.89998 140.147 2.13998 140.227 1.37998V1.01998L140.767 0.47998C140.847 0.559979 140.927 0.659979 141.007 0.77998C141.127 0.859979 141.187 0.939981 141.187 1.01998C141.227 1.73998 141.227 2.47998 141.187 3.23998C140.747 7.67998 140.087 12.06 139.207 16.38C138.367 20.7 137.307 25.16 136.027 29.76C136.827 29.2 137.687 28.62 138.607 28.02C139.527 27.38 140.487 26.86 141.487 26.46C142.487 26.06 143.487 25.84 144.487 25.8C145.487 25.72 146.467 25.94 147.427 26.46C148.187 26.9 148.707 27.42 148.987 28.02C149.307 28.58 149.507 29.38 149.587 30.42C150.387 30.1 151.147 29.78 151.867 29.46C152.627 29.1 153.387 28.76 154.147 28.44C154.987 28.12 155.787 27.82 156.547 27.54C157.307 27.22 158.127 27.1 159.007 27.18C159.007 27.26 159.027 27.3 159.067 27.3C159.067 27.34 159.087 27.36 159.127 27.36C158.927 27.56 158.747 27.68 158.587 27.72C157.307 28.4 156.027 29.06 154.747 29.7C153.507 30.34 152.247 31 150.967 31.68C149.647 32.32 148.587 33.3 147.787 34.62C146.907 36.1 145.887 37.46 144.727 38.7C143.607 39.9 142.347 41.02 140.947 42.06C140.427 42.5 139.847 42.82 139.207 43.02C138.607 43.18 137.987 43.24 137.347 43.2C136.627 43.2 136.127 42.88 135.847 42.24C135.727 41.96 135.687 41.7 135.727 41.46C135.807 41.18 135.927 40.92 136.087 40.68C136.647 40 137.207 39.34 137.767 38.7C138.327 38.02 139.007 37.46 139.807 37.02C141.087 36.14 142.367 35.28 143.647 34.44C144.967 33.6 146.267 32.74 147.547 31.86C148.187 31.38 148.527 30.88 148.567 30.36C148.607 29.84 148.467 29.36 148.147 28.92C147.867 28.44 147.447 28.04 146.887 27.72C146.367 27.4 145.827 27.22 145.267 27.18C144.267 27.1 143.207 27.26 142.087 27.66C141.007 28.02 139.967 28.52 138.967 29.16C138.007 29.76 137.147 30.48 136.387 31.32C135.667 32.12 135.167 32.92 134.887 33.72C134.447 35.32 133.887 37.26 133.207 39.54C132.487 41.82 131.767 44.18 131.047 46.62C130.287 49.02 129.567 51.36 128.887 53.64C128.167 55.92 127.567 57.84 127.087 59.4C127.087 59.48 127.067 59.58 127.027 59.7C126.987 59.78 126.947 59.88 126.907 60H126.727ZM137.407 41.58C137.847 41.66 138.307 41.64 138.787 41.52C139.267 41.4 139.707 41.16 140.107 40.8C140.827 40.12 141.547 39.44 142.267 38.76C143.027 38.08 143.767 37.4 144.487 36.72C144.767 36.44 145.027 36.12 145.267 35.76C145.507 35.4 145.767 35.06 146.047 34.74C146.007 34.66 145.947 34.58 145.867 34.5C145.187 35.1 144.467 35.66 143.707 36.18C142.947 36.66 142.187 37.18 141.427 37.74C140.667 38.26 139.947 38.84 139.267 39.48C138.587 40.08 137.967 40.78 137.407 41.58Z" fill="#B1B1B3"></path><path d="M157.049 36.06C157.129 35.62 157.189 35.22 157.229 34.86C157.269 34.5 157.329 34.16 157.409 33.84C157.649 32.64 157.929 31.3 158.249 29.82C158.609 28.34 158.909 27 159.149 25.8C159.189 25.68 159.269 25.54 159.389 25.38C159.509 25.18 159.669 25.1 159.869 25.14C160.149 25.14 160.309 25.24 160.349 25.44C160.429 25.6 160.469 25.78 160.469 25.98C160.389 26.54 160.269 27.24 160.109 28.08C159.949 28.92 159.829 29.62 159.749 30.18C159.589 30.98 159.429 31.78 159.269 32.58C159.149 33.34 159.029 34.1 158.909 34.86C158.869 35.14 158.849 35.4 158.849 35.64C158.849 35.88 158.849 36.1 158.849 36.3C158.889 36.62 159.009 36.86 159.209 37.02C159.409 37.18 159.649 37.2 159.929 37.08C160.369 36.88 160.709 36.68 160.949 36.48C162.749 35.36 164.429 34.2 165.989 33C167.549 31.8 169.149 30.52 170.789 29.16C170.949 29 171.069 29.02 171.149 29.22C171.229 29.38 171.229 29.52 171.149 29.64C170.549 30.28 169.929 30.9 169.289 31.5C168.689 32.1 168.069 32.72 167.429 33.36C166.469 34.2 165.489 35.02 164.489 35.82C163.489 36.62 162.409 37.34 161.249 37.98C161.009 38.1 160.769 38.22 160.529 38.34C160.289 38.46 160.049 38.56 159.809 38.64C158.769 38.88 158.009 38.52 157.529 37.56C157.449 37.32 157.369 37.06 157.289 36.78C157.209 36.5 157.129 36.26 157.049 36.06ZM162.329 24.18C162.169 24.14 161.969 24.12 161.729 24.12C161.529 24.08 161.389 24.02 161.309 23.94C160.669 23.34 160.109 22.78 159.629 22.26C159.589 22.18 159.569 22.04 159.569 21.84C159.569 21.64 159.589 21.5 159.629 21.42C159.709 21.38 159.829 21.38 159.989 21.42C160.149 21.42 160.289 21.42 160.409 21.42C160.529 21.42 160.589 21.46 160.589 21.54C160.909 21.98 161.209 22.4 161.489 22.8C161.809 23.16 162.109 23.56 162.389 24V24.06C162.349 24.14 162.329 24.18 162.329 24.18Z" fill="#B1B1B3"></path><path d="M193.535 26.4C193.255 26.68 193.015 26.98 192.815 27.3C192.615 27.58 192.355 27.84 192.035 28.08C190.995 29.24 189.935 30.36 188.855 31.44C187.775 32.48 186.675 33.52 185.555 34.56C184.795 35.24 184.015 35.84 183.215 36.36C182.415 36.88 181.655 37.42 180.935 37.98C180.815 38.06 180.655 38.1 180.455 38.1C179.575 38.5 178.835 38.52 178.235 38.16C177.675 37.8 177.355 37.16 177.275 36.24C177.275 35.4 177.295 34.56 177.335 33.72C177.415 32.84 177.495 31.94 177.575 31.02C177.615 30.34 177.675 29.66 177.755 28.98C177.875 28.3 177.995 27.62 178.115 26.94C178.115 26.86 178.095 26.8 178.055 26.76C178.015 26.68 177.995 26.56 177.995 26.4C177.355 26.56 176.795 26.8 176.315 27.12C175.835 27.4 175.355 27.78 174.875 28.26C174.075 28.9 173.335 29.6 172.655 30.36C171.975 31.12 171.395 31.96 170.915 32.88C170.795 33.08 170.635 33.24 170.435 33.36C170.235 33.48 170.015 33.48 169.775 33.36C169.455 33.28 169.295 33.12 169.295 32.88C169.295 32.6 169.295 32.38 169.295 32.22C169.535 30.98 169.755 29.78 169.955 28.62C170.155 27.42 170.395 26.24 170.675 25.08C170.675 24.84 170.755 24.56 170.915 24.24C170.915 24.04 170.955 23.94 171.035 23.94C171.115 23.82 171.215 23.7 171.335 23.58C171.495 23.42 171.595 23.34 171.635 23.34C171.875 23.34 172.015 23.44 172.055 23.64C172.095 23.8 172.115 23.96 172.115 24.12C172.035 24.68 171.955 25.24 171.875 25.8C171.795 26.36 171.715 26.9 171.635 27.42C171.595 27.86 171.555 28.24 171.515 28.56C171.515 28.84 171.455 29.2 171.335 29.64C171.775 29.2 172.195 28.8 172.595 28.44C172.995 28.08 173.375 27.7 173.735 27.3C174.895 26.34 176.075 25.6 177.275 25.08C177.995 24.76 178.555 24.76 178.955 25.08C179.395 25.36 179.595 25.9 179.555 26.7C179.475 27.62 179.375 28.54 179.255 29.46C179.135 30.38 179.035 31.26 178.955 32.1C178.875 32.78 178.835 33.42 178.835 34.02C178.835 34.62 178.835 35.24 178.835 35.88C178.835 36.16 178.935 36.46 179.135 36.78C179.615 36.86 180.095 36.72 180.575 36.36C182.335 35.2 183.995 33.9 185.555 32.46C186.475 31.54 187.435 30.68 188.435 29.88C189.475 29.04 190.515 28.22 191.555 27.42C191.795 27.18 192.055 26.96 192.335 26.76C192.655 26.52 192.975 26.3 193.295 26.1C193.375 26.18 193.455 26.28 193.535 26.4Z" fill="#B1B1B3"></path><path d="M196.311 32.52C195.791 31.96 195.291 31.4 194.811 30.84C194.371 30.24 193.911 29.66 193.431 29.1C192.871 28.46 192.551 27.8 192.471 27.12C192.391 26.4 192.491 25.7 192.771 25.02C192.971 24.54 193.211 24.1 193.491 23.7C193.771 23.3 194.071 22.94 194.391 22.62C194.871 22.06 195.371 21.54 195.891 21.06C196.451 20.54 197.011 20 197.571 19.44C197.771 19.32 197.991 19.22 198.231 19.14C198.471 19.02 198.711 18.92 198.951 18.84C198.991 18.84 199.151 18.94 199.431 19.14L199.131 19.44C198.171 20.28 197.251 21.16 196.371 22.08C195.491 22.96 194.751 23.96 194.151 25.08C193.911 25.52 193.771 26 193.731 26.52C193.731 27.04 193.891 27.52 194.211 27.96C194.731 28.6 195.251 29.24 195.771 29.88C196.291 30.48 196.791 31.1 197.271 31.74C198.631 30.86 199.911 30.08 201.111 29.4C202.311 28.72 203.511 28.12 204.711 27.6C205.911 27.04 207.151 26.54 208.431 26.1C209.711 25.62 211.111 25.16 212.631 24.72C212.671 24.76 212.691 24.8 212.691 24.84C212.691 24.88 212.711 24.94 212.751 25.02C212.551 25.1 212.331 25.2 212.091 25.32C211.891 25.44 211.671 25.56 211.431 25.68C210.711 26.04 210.071 26.36 209.511 26.64C208.991 26.92 208.471 27.2 207.951 27.48C207.471 27.76 206.951 28.04 206.391 28.32C205.831 28.6 205.171 28.92 204.411 29.28C203.491 29.84 202.571 30.42 201.651 31.02C200.731 31.58 199.811 32.14 198.891 32.7L198.771 32.82C198.731 32.86 198.691 32.88 198.651 32.88C198.851 33.44 199.051 34.02 199.251 34.62C199.491 35.18 199.691 35.76 199.851 36.36C199.931 36.76 199.971 37.18 199.971 37.62C199.971 38.06 199.911 38.46 199.791 38.82C199.231 40.5 198.471 42.06 197.511 43.5C196.551 44.9 195.371 46.1 193.971 47.1C193.691 47.34 193.391 47.54 193.071 47.7C192.751 47.82 192.451 47.96 192.171 48.12C191.491 48.36 190.831 48.44 190.191 48.36C189.551 48.24 189.011 48 188.571 47.64C188.091 47.24 187.731 46.74 187.491 46.14C187.251 45.54 187.191 44.88 187.311 44.16C187.511 43.04 187.831 42.02 188.271 41.1C188.711 40.14 189.271 39.22 189.951 38.34C190.751 37.38 191.611 36.5 192.531 35.7C193.451 34.9 194.371 34.1 195.291 33.3C195.411 33.22 195.551 33.12 195.711 33C195.911 32.84 196.111 32.68 196.311 32.52ZM197.451 33.72C197.171 33.92 196.931 34.08 196.731 34.2C196.571 34.32 196.391 34.48 196.191 34.68C195.071 35.56 193.991 36.5 192.951 37.5C191.951 38.46 191.051 39.58 190.251 40.86C189.491 41.94 189.071 43.22 188.991 44.7C188.951 45.5 189.171 46.08 189.651 46.44C190.091 46.8 190.671 46.88 191.391 46.68C191.711 46.52 192.011 46.36 192.291 46.2C192.611 46.04 192.911 45.86 193.191 45.66C194.471 44.82 195.531 43.8 196.371 42.6C197.211 41.36 197.911 40.04 198.471 38.64C198.751 37.72 198.731 36.88 198.411 36.12C198.131 35.36 197.811 34.56 197.451 33.72Z" fill="#B1B1B3"></path><path d="M218.418 28.74C220.538 28.46 222.438 27.96 224.118 27.24C225.798 26.52 227.458 25.54 229.098 24.3V24.42C229.098 24.46 229.118 24.48 229.158 24.48C229.118 24.56 229.078 24.7 229.038 24.9C229.038 25.06 228.998 25.18 228.918 25.26C227.358 26.78 225.758 27.88 224.118 28.56C222.478 29.24 220.578 29.7 218.418 29.94C218.218 29.94 218.058 29.94 217.938 29.94C217.858 29.94 217.778 30.04 217.698 30.24C217.418 30.8 217.018 31.42 216.498 32.1C215.978 32.74 215.398 33.34 214.758 33.9C214.118 34.46 213.438 34.96 212.718 35.4C212.038 35.8 211.378 36.06 210.738 36.18C209.578 36.3 208.758 36.02 208.278 35.34C207.918 34.86 207.738 34.32 207.738 33.72C207.698 33.08 207.758 32.44 207.918 31.8C208.038 31.12 208.198 30.48 208.398 29.88C208.638 29.24 208.858 28.68 209.058 28.2C209.178 27.92 209.198 27.66 209.118 27.42C208.798 26.58 208.838 25.68 209.238 24.72C209.638 23.76 210.238 23.06 211.038 22.62C211.558 22.38 212.098 22.18 212.658 22.02C213.218 21.82 213.818 21.72 214.458 21.72C215.418 21.72 216.238 21.94 216.918 22.38C217.638 22.82 218.178 23.4 218.538 24.12C218.898 24.8 219.078 25.56 219.078 26.4C219.078 27.2 218.858 27.98 218.418 28.74ZM210.378 28.98C209.818 29.86 209.458 30.7 209.298 31.5C209.138 32.3 209.098 33.1 209.178 33.9C209.258 34.3 209.438 34.58 209.718 34.74C209.998 34.86 210.358 34.88 210.798 34.8C211.918 34.56 212.958 34.02 213.918 33.18C214.918 32.3 215.638 31.3 216.078 30.18C213.958 30.38 212.058 29.98 210.378 28.98ZM215.718 28.74C216.278 28.74 216.618 28.72 216.738 28.68C216.858 28.6 216.978 28.38 217.098 28.02C217.378 27.1 217.498 26.22 217.458 25.38C217.458 24.54 216.878 23.86 215.718 23.34C215.518 23.22 215.318 23.14 215.118 23.1C214.958 23.02 214.798 23.14 214.638 23.46C214.638 23.54 214.598 23.6 214.518 23.64C214.438 23.64 214.378 23.68 214.338 23.76C213.778 24.24 213.218 24.74 212.658 25.26C212.098 25.74 211.618 26.3 211.218 26.94C211.098 27.26 211.058 27.48 211.098 27.6C211.138 27.72 211.318 27.86 211.638 28.02C212.438 28.34 213.138 28.54 213.738 28.62C214.338 28.7 214.998 28.74 215.718 28.74ZM210.258 25.32C210.658 25.04 211.138 24.66 211.698 24.18C212.258 23.7 212.758 23.28 213.198 22.92C212.558 23.12 211.938 23.44 211.338 23.88C210.738 24.32 210.378 24.8 210.258 25.32Z" fill="#B1B1B3"></path><path d="M251.133 26.4C250.853 26.68 250.613 26.98 250.413 27.3C250.213 27.58 249.953 27.84 249.633 28.08C248.593 29.24 247.533 30.36 246.453 31.44C245.373 32.48 244.273 33.52 243.153 34.56C242.393 35.24 241.613 35.84 240.813 36.36C240.013 36.88 239.253 37.42 238.533 37.98C238.413 38.06 238.253 38.1 238.053 38.1C237.173 38.5 236.433 38.52 235.833 38.16C235.273 37.8 234.953 37.16 234.873 36.24C234.873 35.4 234.893 34.56 234.933 33.72C235.013 32.84 235.093 31.94 235.173 31.02C235.213 30.34 235.273 29.66 235.353 28.98C235.473 28.3 235.593 27.62 235.713 26.94C235.713 26.86 235.693 26.8 235.653 26.76C235.613 26.68 235.593 26.56 235.593 26.4C234.953 26.56 234.393 26.8 233.913 27.12C233.433 27.4 232.953 27.78 232.473 28.26C231.673 28.9 230.933 29.6 230.253 30.36C229.573 31.12 228.993 31.96 228.513 32.88C228.393 33.08 228.233 33.24 228.033 33.36C227.833 33.48 227.613 33.48 227.373 33.36C227.053 33.28 226.893 33.12 226.893 32.88C226.893 32.6 226.893 32.38 226.893 32.22C227.133 30.98 227.353 29.78 227.553 28.62C227.753 27.42 227.993 26.24 228.273 25.08C228.273 24.84 228.353 24.56 228.513 24.24C228.513 24.04 228.553 23.94 228.633 23.94C228.713 23.82 228.813 23.7 228.933 23.58C229.093 23.42 229.193 23.34 229.233 23.34C229.473 23.34 229.613 23.44 229.653 23.64C229.693 23.8 229.713 23.96 229.713 24.12C229.633 24.68 229.553 25.24 229.473 25.8C229.393 26.36 229.313 26.9 229.233 27.42C229.193 27.86 229.153 28.24 229.113 28.56C229.113 28.84 229.053 29.2 228.933 29.64C229.373 29.2 229.793 28.8 230.193 28.44C230.593 28.08 230.973 27.7 231.333 27.3C232.493 26.34 233.673 25.6 234.873 25.08C235.593 24.76 236.153 24.76 236.553 25.08C236.993 25.36 237.193 25.9 237.153 26.7C237.073 27.62 236.973 28.54 236.853 29.46C236.733 30.38 236.633 31.26 236.553 32.1C236.473 32.78 236.433 33.42 236.433 34.02C236.433 34.62 236.433 35.24 236.433 35.88C236.433 36.16 236.533 36.46 236.733 36.78C237.213 36.86 237.693 36.72 238.173 36.36C239.933 35.2 241.593 33.9 243.153 32.46C244.073 31.54 245.033 30.68 246.033 29.88C247.073 29.04 248.113 28.22 249.153 27.42C249.393 27.18 249.653 26.96 249.933 26.76C250.253 26.52 250.573 26.3 250.893 26.1C250.973 26.18 251.053 26.28 251.133 26.4Z" fill="#B1B1B3"></path></svg>